<svg width="512" height="512" viewBox="0 0 512 512" fill="none" xmlns="http://www.w3.org/2000/svg">
<path d="M48 336V432C48.0369 444.719 53.1059 456.907 62.0997 465.9C71.0934 474.894 83.281 479.963 96 480H416C428.719 479.963 440.907 474.894 449.9 465.9C458.894 456.907 463.963 444.719 464 432V336" stroke="black" stroke-width="32" stroke-linejoin="round"/>
<path d="M48 336H192C192 352.974 198.743 369.252 210.745 381.255C222.747 393.257 239.026 400 256 400C272.974 400 289.252 393.257 301.255 381.255C313.257 369.252 320 352.974 320 336H464" stroke="black" stroke-width="32" stroke-linecap="round" stroke-linejoin="round"/>
<path d="M384 32H128C102 32 85 46 80 72L48 192V288C48.0369 300.719 53.1059 312.907 62.0997 321.9C71.0934 330.894 83.281 335.963 96 336H416C428.719 335.963 440.907 330.894 449.9 321.9C458.894 312.907 463.963 300.719 464 288V192L432 72C427 45 409 32 384 32Z" stroke="black" stroke-width="32" stroke-linejoin="round"/>
<path d="M48 192H192C192 208.974 198.743 225.253 210.745 237.255C222.747 249.257 239.026 256 256 256C272.974 256 289.252 249.257 301.255 237.255C313.257 225.253 320 208.974 320 192H464" stroke="black" stroke-width="32" stroke-linecap="round" stroke-linejoin="round"/>
</svg>
