<svg width="512" height="512" viewBox="0 0 512 512" fill="none" xmlns="http://www.w3.org/2000/svg">
<path d="M160 164C160 164 161.44 131 193.54 104.54C212.6 88.83 235.49 84.28 256 84C274.73 83.77 291.47 86.94 301.48 91.82C318.59 100.2 352 120.6 352 164C352 209.67 322.82 230.37 289.65 253.18C256.48 275.99 248 298.36 248 324" stroke="black" stroke-width="40" stroke-miterlimit="10" stroke-linecap="round"/>
<path d="M248 431.99C265.673 431.99 280 417.663 280 399.99C280 382.317 265.673 367.99 248 367.99C230.327 367.99 216 382.317 216 399.99C216 417.663 230.327 431.99 248 431.99Z" fill="black"/>
</svg>
