<svg width="512" height="512" viewBox="0 0 512 512" fill="none" xmlns="http://www.w3.org/2000/svg">
<path d="M192 176V136C192 125.391 196.214 115.217 203.716 107.716C211.217 100.214 221.391 96 232 96H392C402.609 96 412.783 100.214 420.284 107.716C427.786 115.217 432 125.391 432 136V376C432 386.609 427.786 396.783 420.284 404.284C412.783 411.786 402.609 416 392 416H240C217.91 416 192 398.09 192 376V336" stroke="black" stroke-width="32" stroke-linecap="round" stroke-linejoin="round"/>
<path d="M288 336L368 256L288 176M80 256H352" stroke="black" stroke-width="32" stroke-linecap="round" stroke-linejoin="round"/>
</svg>
