<svg width="512" height="512" viewBox="0 0 512 512" fill="none" xmlns="http://www.w3.org/2000/svg">
<path d="M262.304 192.31C249.173 191.013 235.962 193.807 224.48 200.308C212.998 206.81 203.806 216.701 198.162 228.629C192.519 240.556 190.701 253.937 192.956 266.937C195.211 279.938 201.429 291.925 210.759 301.255C220.09 310.585 232.076 316.804 245.077 319.059C258.078 321.314 271.458 319.495 283.385 313.852C295.313 308.209 305.204 299.017 311.706 287.534C318.207 276.052 321.001 262.841 319.704 249.71C318.226 234.99 311.703 221.233 301.242 210.772C290.781 200.311 277.025 193.788 262.304 192.31ZM416.404 256C416.363 262.957 415.852 269.902 414.874 276.79L460.084 312.25C462.053 313.882 463.379 316.159 463.828 318.676C464.276 321.194 463.818 323.789 462.534 326L419.764 400C418.465 402.19 416.435 403.851 414.031 404.691C411.627 405.531 409.004 405.495 406.624 404.59L361.724 386.51C359.248 385.524 356.566 385.168 353.919 385.473C351.271 385.779 348.741 386.736 346.554 388.26C339.702 392.979 332.501 397.171 325.014 400.8C322.66 401.944 320.625 403.65 319.086 405.767C317.548 407.884 316.555 410.348 316.194 412.94L309.464 460.83C309.022 463.359 307.716 465.656 305.768 467.329C303.82 469.001 301.351 469.946 298.784 470H213.244C210.72 469.956 208.285 469.054 206.342 467.442C204.399 465.829 203.063 463.603 202.554 461.13L195.834 413.31C195.457 410.689 194.438 408.203 192.868 406.071C191.298 403.939 189.225 402.228 186.834 401.09C179.356 397.48 172.18 393.277 165.374 388.52C163.195 387.004 160.673 386.054 158.035 385.755C155.398 385.457 152.727 385.819 150.264 386.81L105.374 404.88C102.995 405.786 100.373 405.823 97.9693 404.985C95.5656 404.148 93.5346 402.488 92.2342 400.3L49.4642 326.3C48.1783 324.089 47.7188 321.494 48.1675 318.976C48.6161 316.458 49.9439 314.181 51.9142 312.55L90.1242 282.55C92.2176 280.888 93.8628 278.73 94.9106 276.271C95.9584 273.812 96.3755 271.131 96.1242 268.47C95.7642 264.3 95.5442 260.14 95.5442 255.97C95.5442 251.8 95.7542 247.7 96.1242 243.62C96.3481 240.975 95.9105 238.316 94.8508 235.883C93.7912 233.449 92.1428 231.318 90.0542 229.68L51.8642 199.68C49.9258 198.041 48.6261 195.772 48.1928 193.271C47.7594 190.77 48.2202 188.196 49.4942 186L92.2642 112C93.5631 109.81 95.5934 108.149 97.9972 107.309C100.401 106.469 103.024 106.505 105.404 107.41L150.304 125.49C152.78 126.476 155.462 126.832 158.11 126.527C160.757 126.221 163.288 125.264 165.474 123.74C172.327 119.021 179.527 114.829 187.014 111.2C189.368 110.056 191.404 108.35 192.942 106.233C194.48 104.116 195.474 101.652 195.834 99.06L202.564 51.17C203.006 48.6408 204.313 46.3436 206.261 44.6711C208.209 42.9985 210.677 42.0544 213.244 42H298.784C301.309 42.0437 303.743 42.946 305.686 44.5583C307.63 46.1707 308.966 48.3968 309.474 50.87L316.194 98.69C316.572 101.311 317.591 103.797 319.161 105.929C320.731 108.061 322.803 109.772 325.194 110.91C332.672 114.52 339.848 118.723 346.654 123.48C348.833 124.996 351.355 125.946 353.993 126.245C356.631 126.543 359.301 126.181 361.764 125.19L406.654 107.12C409.033 106.214 411.655 106.177 414.059 107.015C416.463 107.852 418.494 109.512 419.794 111.7L462.564 185.7C463.85 187.911 464.31 190.506 463.861 193.024C463.412 195.542 462.085 197.819 460.114 199.45L421.904 229.45C419.802 231.106 418.147 233.262 417.09 235.721C416.034 238.18 415.609 240.865 415.854 243.53C416.184 247.67 416.404 251.83 416.404 256Z" stroke="black" stroke-width="32" stroke-linecap="round" stroke-linejoin="round"/>
</svg>
