<svg width="44" height="38" viewBox="0 0 44 38" fill="none" xmlns="http://www.w3.org/2000/svg">
<path d="M38.5 7H5.5C3.01472 7 1 9.01472 1 11.5V32.5C1 34.9853 3.01472 37 5.5 37H38.5C40.9853 37 43 34.9853 43 32.5V11.5C43 9.01472 40.9853 7 38.5 7Z" stroke="white" stroke-width="2" stroke-linejoin="round"/>
<path d="M11.5 7V4C11.5 3.20435 11.8161 2.44129 12.3787 1.87868C12.9413 1.31607 13.7044 1 14.5 1H29.5C30.2956 1 31.0587 1.31607 31.6213 1.87868C32.1839 2.44129 32.5 3.20435 32.5 4V7M43 17.5H1M28 17.5V19.75C28 19.9489 27.921 20.1397 27.7803 20.2803C27.6397 20.421 27.4489 20.5 27.25 20.5H16.75C16.5511 20.5 16.3603 20.421 16.2197 20.2803C16.079 20.1397 16 19.9489 16 19.75V17.5" stroke="white" stroke-width="2" stroke-linecap="round" stroke-linejoin="round"/>
</svg>
