<svg width="41" height="41" viewBox="0 0 41 41" fill="none" xmlns="http://www.w3.org/2000/svg">
<path d="M35.5 4H5.5C3.01472 4 1 6.01472 1 8.5V35.5C1 37.9853 3.01472 40 5.5 40H35.5C37.9853 40 40 37.9853 40 35.5V8.5C40 6.01472 37.9853 4 35.5 4Z" stroke="white" stroke-width="2" stroke-linejoin="round"/>
<path d="M24.25 20.5C25.4926 20.5 26.5 19.4926 26.5 18.25C26.5 17.0074 25.4926 16 24.25 16C23.0074 16 22 17.0074 22 18.25C22 19.4926 23.0074 20.5 24.25 20.5Z" fill="white"/>
<path d="M31.75 20.5C32.9926 20.5 34 19.4926 34 18.25C34 17.0074 32.9926 16 31.75 16C30.5074 16 29.5 17.0074 29.5 18.25C29.5 19.4926 30.5074 20.5 31.75 20.5Z" fill="white"/>
<path d="M24.25 28C25.4926 28 26.5 26.9926 26.5 25.75C26.5 24.5074 25.4926 23.5 24.25 23.5C23.0074 23.5 22 24.5074 22 25.75C22 26.9926 23.0074 28 24.25 28Z" fill="white"/>
<path d="M31.75 28C32.9926 28 34 26.9926 34 25.75C34 24.5074 32.9926 23.5 31.75 23.5C30.5074 23.5 29.5 24.5074 29.5 25.75C29.5 26.9926 30.5074 28 31.75 28Z" fill="white"/>
<path d="M9.25 28C10.4926 28 11.5 26.9926 11.5 25.75C11.5 24.5074 10.4926 23.5 9.25 23.5C8.00736 23.5 7 24.5074 7 25.75C7 26.9926 8.00736 28 9.25 28Z" fill="white"/>
<path d="M16.75 28C17.9926 28 19 26.9926 19 25.75C19 24.5074 17.9926 23.5 16.75 23.5C15.5074 23.5 14.5 24.5074 14.5 25.75C14.5 26.9926 15.5074 28 16.75 28Z" fill="white"/>
<path d="M9.25 35.5C10.4926 35.5 11.5 34.4926 11.5 33.25C11.5 32.0074 10.4926 31 9.25 31C8.00736 31 7 32.0074 7 33.25C7 34.4926 8.00736 35.5 9.25 35.5Z" fill="white"/>
<path d="M16.75 35.5C17.9926 35.5 19 34.4926 19 33.25C19 32.0074 17.9926 31 16.75 31C15.5074 31 14.5 32.0074 14.5 33.25C14.5 34.4926 15.5074 35.5 16.75 35.5Z" fill="white"/>
<path d="M24.25 35.5C25.4926 35.5 26.5 34.4926 26.5 33.25C26.5 32.0074 25.4926 31 24.25 31C23.0074 31 22 32.0074 22 33.25C22 34.4926 23.0074 35.5 24.25 35.5Z" fill="white"/>
<path d="M8.5 1V4M32.5 1V4" stroke="white" stroke-width="2" stroke-linecap="round" stroke-linejoin="round"/>
<path d="M40 11.5H1" stroke="white" stroke-width="2" stroke-linejoin="round"/>
</svg>
