<svg width="38" height="38" viewBox="0 0 38 38" fill="none" xmlns="http://www.w3.org/2000/svg">
<path d="M35.3242 27.6156C34.7055 27.0437 33.7961 26.9031 33.018 26.7719C31.9398 26.5937 31.5273 26.3969 30.8992 25.8344C29.5586 24.6437 29.5586 22.9188 30.8992 21.7281L33.7398 19.2063C38.0898 15.3625 38.0898 9.0625 33.7398 5.21875C30.5336 2.39687 26.2305 1 21.7586 1C16.5367 1 11.0805 2.90312 6.87109 6.63437C-0.957031 13.5531 -0.957031 24.8875 6.87109 31.8063C10.7617 35.2469 16.0117 36.9625 21.2055 37H21.3648C26.5586 37 31.6773 35.3219 35.3148 32.0875C36.6648 30.8969 36.4389 28.6562 35.3242 27.6156Z" stroke="white" stroke-width="2" stroke-miterlimit="10"/>
<path d="M8.50146 17.5C10.1583 17.5 11.5015 16.1569 11.5015 14.5C11.5015 12.8431 10.1583 11.5 8.50146 11.5C6.84461 11.5 5.50146 12.8431 5.50146 14.5C5.50146 16.1569 6.84461 17.5 8.50146 17.5Z" fill="white"/>
<path d="M9.25146 27.1562C10.9083 27.1562 12.2515 25.8131 12.2515 24.1562C12.2515 22.4994 10.9083 21.1562 9.25146 21.1562C7.59461 21.1562 6.25146 22.4994 6.25146 24.1562C6.25146 25.8131 7.59461 27.1562 9.25146 27.1562Z" fill="white"/>
<path d="M16.0015 11.5C17.6583 11.5 19.0015 10.1569 19.0015 8.5C19.0015 6.84315 17.6583 5.5 16.0015 5.5C14.3446 5.5 13.0015 6.84315 13.0015 8.5C13.0015 10.1569 14.3446 11.5 16.0015 11.5Z" fill="white"/>
<path d="M19.0015 33.9062C21.4867 33.9062 23.5015 31.8915 23.5015 29.4062C23.5015 26.921 21.4867 24.9062 19.0015 24.9062C16.5162 24.9062 14.5015 26.921 14.5015 29.4062C14.5015 31.8915 16.5162 33.9062 19.0015 33.9062Z" fill="white"/>
<path d="M25.7515 11.5C27.4083 11.5 28.7515 10.1569 28.7515 8.5C28.7515 6.84315 27.4083 5.5 25.7515 5.5C24.0946 5.5 22.7515 6.84315 22.7515 8.5C22.7515 10.1569 24.0946 11.5 25.7515 11.5Z" fill="white"/>
</svg>
