<svg width="45" height="36" viewBox="0 0 45 36" fill="none" xmlns="http://www.w3.org/2000/svg">
<path d="M39.0019 35.9728C38.8049 35.9732 38.6097 35.9345 38.4278 35.859C38.2458 35.7835 38.0805 35.6728 37.9416 35.5332L4.94156 2.53316C4.67213 2.24956 4.52414 1.87194 4.52915 1.4808C4.53416 1.08965 4.69176 0.715942 4.96836 0.439339C5.24497 0.162737 5.61868 0.00513094 6.00982 0.000123077C6.40096 -0.00488478 6.77859 0.143103 7.06218 0.412532L40.0622 33.4125C40.2718 33.6223 40.4146 33.8895 40.4724 34.1804C40.5302 34.4713 40.5005 34.7728 40.387 35.0468C40.2736 35.3208 40.0814 35.555 39.8349 35.7198C39.5883 35.8847 39.2984 35.9727 39.0019 35.9728ZM22.47 29.9728C18.5803 29.9728 14.8294 28.8216 11.3212 26.551C8.12718 24.4885 5.25187 21.5344 3.00562 18.0197V18.0122C4.87499 15.3338 6.92249 13.0688 9.12187 11.2425C9.14177 11.2259 9.158 11.2053 9.16953 11.1821C9.18107 11.1589 9.18766 11.1335 9.1889 11.1076C9.19013 11.0817 9.18598 11.0558 9.1767 11.0316C9.16742 11.0074 9.15322 10.9854 9.13499 10.9669L7.26749 9.10222C7.23431 9.06876 7.18974 9.04902 7.14266 9.04694C7.09558 9.04486 7.04945 9.06057 7.01343 9.09097C4.67718 11.0597 2.50874 13.4747 0.537182 16.3022C0.197981 16.7891 0.0111687 17.3658 0.00048528 17.959C-0.0101982 18.5523 0.155729 19.1353 0.477182 19.6341C2.95312 23.5088 6.13968 26.7722 9.69093 29.07C13.6894 31.6603 17.9925 32.9728 22.47 32.9728C24.8868 32.9653 27.2866 32.5671 29.5762 31.7935C29.6065 31.7832 29.6335 31.7654 29.655 31.7418C29.6764 31.7182 29.6914 31.6895 29.6986 31.6584C29.7059 31.6273 29.7051 31.5949 29.6963 31.5643C29.6875 31.5336 29.671 31.5057 29.6484 31.4832L27.6253 29.46C27.5787 29.4146 27.5211 29.3821 27.4582 29.3656C27.3952 29.3492 27.3291 29.3494 27.2662 29.3663C25.6994 29.7697 24.0879 29.9735 22.47 29.9728ZM44.5181 16.3416C42.0375 12.5053 38.8191 9.2466 35.2116 6.91691C31.2206 4.33691 26.8144 2.97284 22.47 2.97284C20.0788 2.97709 17.7053 3.3837 15.4491 4.17566C15.419 4.18612 15.3921 4.20406 15.3709 4.22779C15.3497 4.25152 15.3348 4.28026 15.3278 4.31131C15.3208 4.34235 15.3218 4.37467 15.3307 4.40523C15.3396 4.43579 15.3561 4.46357 15.3787 4.48597L17.3991 6.50628C17.4461 6.55252 17.5045 6.58553 17.5683 6.60199C17.6322 6.61845 17.6993 6.61777 17.7628 6.60003C19.2975 6.18489 20.8802 5.974 22.47 5.97284C26.2847 5.97284 30.0244 7.13816 33.5841 9.4416C36.8381 11.5416 39.7472 14.4928 41.9991 17.9728C42.0007 17.975 42.0016 17.9776 42.0016 17.9803C42.0016 17.9831 42.0007 17.9857 41.9991 17.9878C40.3644 20.5612 38.336 22.862 35.9878 24.8063C35.9677 24.8229 35.9513 24.8434 35.9396 24.8667C35.9278 24.89 35.9211 24.9154 35.9198 24.9415C35.9185 24.9675 35.9226 24.9935 35.9319 25.0178C35.9412 25.0422 35.9554 25.0643 35.9737 25.0828L37.8394 26.9475C37.8724 26.9809 37.9167 27.0006 37.9636 27.0029C38.0104 27.0051 38.0564 26.9897 38.0925 26.9597C40.5994 24.8489 42.7694 22.3679 44.5275 19.6022C44.8383 19.1149 45.0026 18.5485 45.0009 17.9705C44.9992 17.3925 44.8317 16.8272 44.5181 16.3416Z" fill="white"/>
<path d="M22.5019 8.97284C21.8278 8.97248 21.1557 9.04795 20.4985 9.19784C20.4653 9.20473 20.4346 9.2205 20.4096 9.24346C20.3847 9.26642 20.3664 9.29572 20.3568 9.32823C20.3472 9.36074 20.3465 9.39526 20.355 9.4281C20.3634 9.46093 20.3806 9.49087 20.4047 9.51472L30.96 20.0672C30.9839 20.0913 31.0138 20.1085 31.0466 20.1169C31.0795 20.1254 31.114 20.1248 31.1465 20.1151C31.179 20.1055 31.2083 20.0873 31.2313 20.0623C31.2542 20.0374 31.27 20.0067 31.2769 19.9735C31.5774 18.6554 31.5771 17.2865 31.2761 15.9686C30.975 14.6506 30.3809 13.4174 29.5378 12.3605C28.6948 11.3037 27.6245 10.4503 26.4064 9.86383C25.1884 9.27735 23.8538 8.97281 22.5019 8.97284ZM14.0438 15.8785C14.0199 15.8544 13.99 15.8372 13.9572 15.8287C13.9243 15.8203 13.8898 15.8209 13.8573 15.8305C13.8248 15.8402 13.7955 15.8584 13.7725 15.8834C13.7496 15.9083 13.7338 15.939 13.7269 15.9722C13.3869 17.4575 13.4296 19.0049 13.851 20.4692C14.2723 21.9335 15.0586 23.2669 16.136 24.3443C17.2135 25.4218 18.5469 26.208 20.0112 26.6294C21.4755 27.0508 23.0228 27.0935 24.5081 26.7535C24.5413 26.7466 24.5721 26.7308 24.597 26.7078C24.622 26.6849 24.6402 26.6556 24.6498 26.6231C24.6594 26.5906 24.6601 26.556 24.6516 26.5232C24.6432 26.4904 24.626 26.4604 24.6019 26.4366L14.0438 15.8785Z" fill="white"/>
</svg>
