<svg width="44" height="29" viewBox="0 0 44 29" fill="none" xmlns="http://www.w3.org/2000/svg">
<path d="M21.9682 1C14.6613 1 7.16603 5.22906 1.2654 13.6872C1.09698 13.9313 1.00468 14.2198 1.00017 14.5163C0.995668 14.8128 1.07916 15.104 1.24009 15.3531C5.77384 22.45 13.1688 28 21.9682 28C30.672 28 38.2188 22.4331 42.761 15.3203C42.9182 15.0761 43.0018 14.7918 43.0018 14.5014C43.0018 14.211 42.9182 13.9267 42.761 13.6825C38.2085 6.65125 30.6063 1 21.9682 1Z" stroke="white" stroke-width="2" stroke-linecap="round" stroke-linejoin="round"/>
<path d="M22 22C26.1421 22 29.5 18.6421 29.5 14.5C29.5 10.3579 26.1421 7 22 7C17.8579 7 14.5 10.3579 14.5 14.5C14.5 18.6421 17.8579 22 22 22Z" stroke="white" stroke-width="2" stroke-miterlimit="10"/>
</svg>
