<svg width="41" height="44" viewBox="0 0 41 44" fill="none" xmlns="http://www.w3.org/2000/svg">
<path d="M1 29.5V38.5C1.00346 39.6924 1.47868 40.835 2.32184 41.6782C3.16501 42.5213 4.30759 42.9965 5.5 43H35.5C36.6924 42.9965 37.835 42.5213 38.6782 41.6782C39.5213 40.835 39.9965 39.6924 40 38.5V29.5" stroke="white" stroke-width="2" stroke-linejoin="round"/>
<path d="M1 29.5H14.5C14.5 31.0913 15.1321 32.6174 16.2574 33.7426C17.3826 34.8679 18.9087 35.5 20.5 35.5C22.0913 35.5 23.6174 34.8679 24.7426 33.7426C25.8679 32.6174 26.5 31.0913 26.5 29.5H40" stroke="white" stroke-width="2" stroke-linecap="round" stroke-linejoin="round"/>
<path d="M32.5 1H8.5C6.0625 1 4.46875 2.3125 4 4.75L1 16V25C1.00346 26.1924 1.47868 27.335 2.32184 28.1782C3.16501 29.0213 4.30759 29.4965 5.5 29.5H35.5C36.6924 29.4965 37.835 29.0213 38.6782 28.1782C39.5213 27.335 39.9965 26.1924 40 25V16L37 4.75C36.5312 2.21875 34.8438 1 32.5 1Z" stroke="white" stroke-width="2" stroke-linejoin="round"/>
<path d="M1 16H14.5C14.5 17.5913 15.1321 19.1174 16.2574 20.2426C17.3826 21.3679 18.9087 22 20.5 22C22.0913 22 23.6174 21.3679 24.7426 20.2426C25.8679 19.1174 26.5 17.5913 26.5 16H40" stroke="white" stroke-width="2" stroke-linecap="round" stroke-linejoin="round"/>
</svg>
