<svg width="42" height="42" viewBox="0 0 42 42" fill="none" xmlns="http://www.w3.org/2000/svg">
<path d="M40.9603 17.7638L40.7484 16.8647H21.2072V25.1353H32.8828C31.6706 30.8916 26.0456 33.9216 21.4509 33.9216C18.1078 33.9216 14.5837 32.5153 12.2512 30.255C11.0206 29.0434 10.0411 27.601 9.36862 26.0103C8.69618 24.4196 8.34409 22.7119 8.3325 20.985C8.3325 17.5012 9.89813 14.0166 12.1763 11.7244C14.4544 9.43219 17.895 8.14969 21.3159 8.14969C25.2337 8.14969 28.0416 10.23 29.0916 11.1788L34.9688 5.3325C33.2447 3.8175 28.5084 0 21.1266 0C15.4313 0 9.97031 2.18156 5.97844 6.16031C2.03906 10.0781 0 15.7434 0 21C0 26.2566 1.92938 31.6388 5.74688 35.5875C9.82594 39.7988 15.6028 42 21.5513 42C26.9634 42 32.0934 39.8794 35.7497 36.0319C39.3441 32.2444 41.2031 27.0037 41.2031 21.51C41.2031 19.1972 40.9706 17.8237 40.9603 17.7638Z" fill="white"/>
</svg>
