<svg width="42" height="42" viewBox="0 0 42 42" fill="none" xmlns="http://www.w3.org/2000/svg">
<path d="M6 18.8438H17.3438C18.1722 18.8438 18.8438 18.1722 18.8438 17.3438V6C18.8438 2.69166 16.1521 0 12.8437 0H6C2.69166 0 0 2.69166 0 6V12.8438C0 16.1521 2.69166 18.8438 6 18.8438Z" fill="white"/>
<path d="M36 0H29.1562C25.8481 0 23.1562 2.69166 23.1562 6V17.3438C23.1562 18.1722 23.8278 18.8438 24.6562 18.8438H36C39.3084 18.8438 42 16.1521 42 12.8438V6C42 2.69166 39.3084 0 36 0Z" fill="white"/>
<path d="M6 42H12.8437C16.1521 42 18.8438 39.3084 18.8438 36V24.6562C18.8438 23.8278 18.1722 23.1562 17.3438 23.1562H6C2.69166 23.1562 0 25.848 0 29.1562V36C0 39.3084 2.69166 42 6 42Z" fill="white"/>
<path d="M36 23.1562H24.6562C23.8278 23.1562 23.1562 23.8278 23.1562 24.6562V36C23.1562 39.3084 25.8481 42 29.1562 42H36C39.3084 42 42 39.3084 42 36V29.1562C42 25.848 39.3084 23.1562 36 23.1562Z" fill="white"/>
</svg>
