<svg width="41" height="41" viewBox="0 0 41 41" fill="none" xmlns="http://www.w3.org/2000/svg">
<path d="M15.625 1H2.875C1.83947 1 1 1.83947 1 2.875V15.625C1 16.6605 1.83947 17.5 2.875 17.5H15.625C16.6605 17.5 17.5 16.6605 17.5 15.625V2.875C17.5 1.83947 16.6605 1 15.625 1Z" stroke="white" stroke-width="2" stroke-linecap="round" stroke-linejoin="round"/>
<path d="M38.125 1H25.375C24.3395 1 23.5 1.83947 23.5 2.875V15.625C23.5 16.6605 24.3395 17.5 25.375 17.5H38.125C39.1605 17.5 40 16.6605 40 15.625V2.875C40 1.83947 39.1605 1 38.125 1Z" stroke="white" stroke-width="2" stroke-linecap="round" stroke-linejoin="round"/>
<path d="M15.625 23.5H2.875C1.83947 23.5 1 24.3395 1 25.375V38.125C1 39.1605 1.83947 40 2.875 40H15.625C16.6605 40 17.5 39.1605 17.5 38.125V25.375C17.5 24.3395 16.6605 23.5 15.625 23.5Z" stroke="white" stroke-width="2" stroke-linecap="round" stroke-linejoin="round"/>
<path d="M38.125 23.5H25.375C24.3395 23.5 23.5 24.3395 23.5 25.375V38.125C23.5 39.1605 24.3395 40 25.375 40H38.125C39.1605 40 40 39.1605 40 38.125V25.375C40 24.3395 39.1605 23.5 38.125 23.5Z" stroke="white" stroke-width="2" stroke-linecap="round" stroke-linejoin="round"/>
</svg>
