<svg width="20" height="34" viewBox="0 0 20 34" fill="none" xmlns="http://www.w3.org/2000/svg">
<path d="M1 8.5011C1 8.5011 1.135 5.40735 4.14437 2.92673C5.93125 1.45391 8.07719 1.02735 10 1.0011C11.7559 0.979538 13.3253 1.27673 14.2638 1.73423C15.8678 2.51985 19 4.43235 19 8.5011C19 12.7827 16.2644 14.7233 13.1547 16.8617C10.045 19.0002 9.25 21.0974 9.25 23.5011" stroke="white" stroke-width="2" stroke-miterlimit="10" stroke-linecap="round"/>
<path d="M9.25 33.6252C10.9069 33.6252 12.25 32.282 12.25 30.6252C12.25 28.9683 10.9069 27.6252 9.25 27.6252C7.59315 27.6252 6.25 28.9683 6.25 30.6252C6.25 32.282 7.59315 33.6252 9.25 33.6252Z" fill="white"/>
</svg>
