<svg width="45" height="42" viewBox="0 0 45 42" fill="none" xmlns="http://www.w3.org/2000/svg">
<path d="M23.0213 6.49499C22.8818 6.36148 22.6961 6.28696 22.5029 6.28696C22.3098 6.28696 22.124 6.36148 21.9845 6.49499L4.7251 22.9828C4.6518 23.0529 4.59349 23.1372 4.55368 23.2305C4.51388 23.3238 4.49342 23.4242 4.49354 23.5256L4.49072 39C4.49072 39.7956 4.80679 40.5587 5.3694 41.1213C5.93201 41.6839 6.69507 42 7.49072 42H16.5001C16.8979 42 17.2795 41.842 17.5608 41.5607C17.8421 41.2794 18.0001 40.8978 18.0001 40.5V27.75C18.0001 27.5511 18.0791 27.3603 18.2198 27.2197C18.3604 27.079 18.5512 27 18.7501 27H26.2501C26.449 27 26.6398 27.079 26.7804 27.2197C26.9211 27.3603 27.0001 27.5511 27.0001 27.75V40.5C27.0001 40.8978 27.1581 41.2794 27.4394 41.5607C27.7207 41.842 28.1023 42 28.5001 42H37.5057C38.3014 42 39.0644 41.6839 39.627 41.1213C40.1897 40.5587 40.5057 39.7956 40.5057 39V23.5256C40.5058 23.4242 40.4854 23.3238 40.4456 23.2305C40.4058 23.1372 40.3475 23.0529 40.2742 22.9828L23.0213 6.49499Z" fill="white"/>
<path d="M44.5228 19.8891L37.5103 13.1803V3C37.5103 2.60218 37.3523 2.22064 37.071 1.93934C36.7897 1.65804 36.4082 1.5 36.0103 1.5H31.5103C31.1125 1.5 30.731 1.65804 30.4497 1.93934C30.1684 2.22064 30.0103 2.60218 30.0103 3V6L24.5803 0.808125C24.0722 0.294375 23.3166 0 22.5 0C21.6863 0 20.9325 0.294375 20.4244 0.809063L0.483786 19.8872C-0.0993395 20.4497 -0.172464 21.375 0.358161 21.9844C0.491408 22.1382 0.654562 22.2633 0.83769 22.352C1.02082 22.4408 1.22009 22.4914 1.42339 22.5007C1.62668 22.51 1.82974 22.4778 2.0202 22.4061C2.21067 22.3344 2.38456 22.2248 2.53129 22.0837L21.9844 3.495C22.124 3.36148 22.3097 3.28696 22.5028 3.28696C22.696 3.28696 22.8817 3.36148 23.0213 3.495L42.4763 22.0837C42.7629 22.3586 43.1467 22.5086 43.5437 22.5008C43.9407 22.4931 44.3184 22.3283 44.5941 22.0425C45.1697 21.4462 45.1219 20.4619 44.5228 19.8891Z" fill="white"/>
</svg>
