<svg width="15" height="30" viewBox="0 0 15 30" fill="none" xmlns="http://www.w3.org/2000/svg">
<path d="M1.84375 11.625H7.84375V27.75" stroke="white" stroke-width="2" stroke-linecap="round" stroke-linejoin="round"/>
<path d="M1 28.125H13.9375" stroke="white" stroke-width="2" stroke-miterlimit="10" stroke-linecap="round"/>
<path d="M7.46875 6C6.87541 6 6.29539 5.82405 5.80204 5.49441C5.30869 5.16477 4.92418 4.69623 4.69711 4.14805C4.47005 3.59987 4.41064 2.99667 4.5264 2.41473C4.64215 1.83279 4.92787 1.29824 5.34743 0.878681C5.76699 0.459124 6.30154 0.173401 6.88348 0.0576455C7.46542 -0.0581102 8.06862 0.00129984 8.6168 0.228363C9.16498 0.455426 9.63352 0.839944 9.96316 1.33329C10.2928 1.82664 10.4688 2.40666 10.4688 3C10.4688 3.79565 10.1527 4.55871 9.59007 5.12132C9.02746 5.68393 8.2644 6 7.46875 6Z" fill="white"/>
</svg>
