<svg width="41" height="20" viewBox="0 0 41 20" fill="none" xmlns="http://www.w3.org/2000/svg">
<path d="M16 19H10C7.61305 19 5.32387 18.0518 3.63604 16.364C1.94821 14.6761 1 12.3869 1 10C1 7.61305 1.94821 5.32387 3.63604 3.63604C5.32387 1.94821 7.61305 1 10 1H16M25 1H31C33.3869 1 35.6761 1.94821 37.364 3.63604C39.0518 5.32387 40 7.61305 40 10C40 12.3869 39.0518 14.6761 37.364 16.364C35.6761 18.0518 33.3869 19 31 19H25M11.8084 10H29.3791" stroke="white" stroke-width="2" stroke-linecap="round" stroke-linejoin="round"/>
</svg>
