<svg width="29" height="41" viewBox="0 0 29 41" fill="none" xmlns="http://www.w3.org/2000/svg">
<path d="M14.5 1C7.04688 1 1 6.75531 1 13.8438C1 22 10 34.9253 13.3047 39.3897C13.4419 39.5781 13.6217 39.7315 13.8294 39.8372C14.0371 39.943 14.2669 39.9981 14.5 39.9981C14.7331 39.9981 14.9629 39.943 15.1706 39.8372C15.3783 39.7315 15.5581 39.5781 15.6953 39.3897C19 34.9272 28 22.0066 28 13.8438C28 6.75531 21.9531 1 14.5 1Z" stroke="white" stroke-width="2" stroke-linecap="round" stroke-linejoin="round"/>
<path d="M14.5 19C16.9853 19 19 16.9853 19 14.5C19 12.0147 16.9853 10 14.5 10C12.0147 10 10 12.0147 10 14.5C10 16.9853 12.0147 19 14.5 19Z" stroke="white" stroke-width="2" stroke-linecap="round" stroke-linejoin="round"/>
</svg>
