<svg width="35" height="32" viewBox="0 0 35 32" fill="none" xmlns="http://www.w3.org/2000/svg">
<path d="M11.5 8.5V4.75C11.5 3.75544 11.8951 2.80161 12.5983 2.09835C13.3016 1.39509 14.2554 1 15.25 1H30.25C31.2446 1 32.1984 1.39509 32.9017 2.09835C33.6049 2.80161 34 3.75544 34 4.75V27.25C34 28.2446 33.6049 29.1984 32.9017 29.9017C32.1984 30.6049 31.2446 31 30.25 31H16C13.9291 31 11.5 29.3209 11.5 27.25V23.5" stroke="white" stroke-width="2" stroke-linecap="round" stroke-linejoin="round"/>
<path d="M20.5 23.5L28 16L20.5 8.5M1 16H26.5" stroke="white" stroke-width="2" stroke-linecap="round" stroke-linejoin="round"/>
</svg>
