<svg width="38" height="32" viewBox="0 0 38 32" fill="none" xmlns="http://www.w3.org/2000/svg">
<path d="M23.5 23.5V27.25C23.5 28.2446 23.1049 29.1984 22.4017 29.9017C21.6984 30.6049 20.7446 31 19.75 31H4.75C3.75544 31 2.80161 30.6049 2.09835 29.9017C1.39509 29.1984 1 28.2446 1 27.25V4.75C1 3.75544 1.39509 2.80161 2.09835 2.09835C2.80161 1.39509 3.75544 1 4.75 1H19C21.0709 1 23.5 2.67906 23.5 4.75V8.5M29.5 23.5L37 16L29.5 8.5M11.5 16H35.5" stroke="white" stroke-width="2" stroke-linecap="round" stroke-linejoin="round"/>
</svg>
