<svg width="38" height="32" viewBox="0 0 38 32" fill="none" xmlns="http://www.w3.org/2000/svg">
<path d="M29.5 4H37M1 4H23.5M29.5 28H37M1 28H23.5M14.5 16H37M1 16H8.5" stroke="white" stroke-width="2" stroke-linecap="round" stroke-linejoin="round"/>
<path d="M26.5 7C28.1569 7 29.5 5.65685 29.5 4C29.5 2.34315 28.1569 1 26.5 1C24.8431 1 23.5 2.34315 23.5 4C23.5 5.65685 24.8431 7 26.5 7Z" stroke="white" stroke-width="2" stroke-linecap="round" stroke-linejoin="round"/>
<path d="M11.5 19C13.1569 19 14.5 17.6569 14.5 16C14.5 14.3431 13.1569 13 11.5 13C9.84315 13 8.5 14.3431 8.5 16C8.5 17.6569 9.84315 19 11.5 19Z" stroke="white" stroke-width="2" stroke-linecap="round" stroke-linejoin="round"/>
<path d="M26.5 31C28.1569 31 29.5 29.6569 29.5 28C29.5 26.3431 28.1569 25 26.5 25C24.8431 25 23.5 26.3431 23.5 28C23.5 29.6569 24.8431 31 26.5 31Z" stroke="white" stroke-width="2" stroke-linecap="round" stroke-linejoin="round"/>
</svg>
