<svg width="45" height="42" viewBox="0 0 45 42" fill="none" xmlns="http://www.w3.org/2000/svg">
<path d="M25.5 21C30.4491 21 34.8216 16.3397 35.25 10.6106C35.4628 7.7325 34.56 5.04844 32.7075 3.05438C30.8747 1.08469 28.3125 0 25.5 0C22.665 0 20.1009 1.07812 18.2812 3.03562C16.4409 5.01469 15.5437 7.70438 15.75 10.6088C16.1709 16.3388 20.5425 21 25.5 21ZM44.9419 38.2275C44.1506 33.8381 41.6803 30.1509 37.7991 27.5634C34.3519 25.2656 29.9841 24 25.5 24C21.0159 24 16.6481 25.2656 13.2009 27.5625C9.31969 30.15 6.84938 33.8372 6.05813 38.2266C5.87719 39.2325 6.12281 40.2272 6.73219 40.9556C7.00858 41.2876 7.35562 41.5536 7.74797 41.7343C8.14033 41.915 8.56808 42.0058 9 42H42C42.4322 42.0062 42.8602 41.9157 43.2529 41.7351C43.6456 41.5546 43.993 41.2886 44.2697 40.9566C44.8772 40.2281 45.1228 39.2334 44.9419 38.2275ZM8.25 24V20.25H12C12.3978 20.25 12.7794 20.092 13.0607 19.8107C13.342 19.5294 13.5 19.1478 13.5 18.75C13.5 18.3522 13.342 17.9706 13.0607 17.6893C12.7794 17.408 12.3978 17.25 12 17.25H8.25V13.5C8.25 13.1022 8.09196 12.7206 7.81066 12.4393C7.52936 12.158 7.14782 12 6.75 12C6.35218 12 5.97064 12.158 5.68934 12.4393C5.40804 12.7206 5.25 13.1022 5.25 13.5V17.25H1.5C1.10218 17.25 0.720644 17.408 0.43934 17.6893C0.158035 17.9706 0 18.3522 0 18.75C0 19.1478 0.158035 19.5294 0.43934 19.8107C0.720644 20.092 1.10218 20.25 1.5 20.25H5.25V24C5.25 24.3978 5.40804 24.7794 5.68934 25.0607C5.97064 25.342 6.35218 25.5 6.75 25.5C7.14782 25.5 7.52936 25.342 7.81066 25.0607C8.09196 24.7794 8.25 24.3978 8.25 24Z" fill="white"/>
</svg>
