<svg width="41" height="41" viewBox="0 0 41 41" fill="none" xmlns="http://www.w3.org/2000/svg">
<path d="M38.7828 31.5615C37.294 30.0615 33.6884 27.8724 31.939 26.9902C29.6609 25.8427 29.4734 25.749 27.6828 27.0793C26.4884 27.9671 25.6943 28.7602 24.2965 28.4621C22.8987 28.164 19.8612 26.483 17.2015 23.8318C14.5418 21.1805 12.7634 18.0549 12.4643 16.6618C12.1653 15.2687 12.9715 14.484 13.8509 13.2868C15.0903 11.5993 14.9965 11.318 13.9371 9.0399C13.1112 7.26803 10.8584 3.69615 9.35276 2.2149C7.74214 0.623965 7.74214 0.905214 6.70433 1.33646C5.85942 1.69195 5.04885 2.12407 4.28276 2.6274C2.78276 3.62396 1.95026 4.45178 1.36808 5.69584C0.785888 6.9399 0.524326 9.85647 3.53089 15.3183C6.53745 20.7802 8.64683 23.573 13.0128 27.9268C17.3787 32.2805 20.7359 34.6215 25.6437 37.374C31.715 40.7743 34.0437 40.1115 35.2915 39.5302C36.5393 38.949 37.3709 38.124 38.3693 36.624C38.874 35.8592 39.307 35.0495 39.6631 34.2052C40.0953 33.1712 40.3765 33.1712 38.7828 31.5615Z" stroke="white" stroke-width="2" stroke-miterlimit="10"/>
</svg>
