<svg width="42" height="42" viewBox="0 0 42 42" fill="none" xmlns="http://www.w3.org/2000/svg">
<path d="M34.75 28H28.75C28.3358 28 28 28.3358 28 28.75V34.75C28 35.1642 28.3358 35.5 28.75 35.5H34.75C35.1642 35.5 35.5 35.1642 35.5 34.75V28.75C35.5 28.3358 35.1642 28 34.75 28Z" fill="white"/>
<path d="M27.25 22H22.75C22.3358 22 22 22.3358 22 22.75V27.25C22 27.6642 22.3358 28 22.75 28H27.25C27.6642 28 28 27.6642 28 27.25V22.75C28 22.3358 27.6642 22 27.25 22Z" fill="white"/>
<path d="M40.75 35.5H36.25C35.8358 35.5 35.5 35.8358 35.5 36.25V40.75C35.5 41.1642 35.8358 41.5 36.25 41.5H40.75C41.1642 41.5 41.5 41.1642 41.5 40.75V36.25C41.5 35.8358 41.1642 35.5 40.75 35.5Z" fill="white"/>
<path d="M40.75 22H37.75C37.3358 22 37 22.3358 37 22.75V25.75C37 26.1642 37.3358 26.5 37.75 26.5H40.75C41.1642 26.5 41.5 26.1642 41.5 25.75V22.75C41.5 22.3358 41.1642 22 40.75 22Z" fill="white"/>
<path d="M25.75 37H22.75C22.3358 37 22 37.3358 22 37.75V40.75C22 41.1642 22.3358 41.5 22.75 41.5H25.75C26.1642 41.5 26.5 41.1642 26.5 40.75V37.75C26.5 37.3358 26.1642 37 25.75 37Z" fill="white"/>
<path d="M34.75 5.5H28.75C28.3358 5.5 28 5.83579 28 6.25V12.25C28 12.6642 28.3358 13 28.75 13H34.75C35.1642 13 35.5 12.6642 35.5 12.25V6.25C35.5 5.83579 35.1642 5.5 34.75 5.5Z" fill="white"/>
<path d="M38.5 1H25C24.1716 1 23.5 1.67157 23.5 2.5V16C23.5 16.8284 24.1716 17.5 25 17.5H38.5C39.3284 17.5 40 16.8284 40 16V2.5C40 1.67157 39.3284 1 38.5 1Z" stroke="white" stroke-width="2" stroke-linecap="round" stroke-linejoin="round"/>
<path d="M12.25 5.5H6.25C5.83579 5.5 5.5 5.83579 5.5 6.25V12.25C5.5 12.6642 5.83579 13 6.25 13H12.25C12.6642 13 13 12.6642 13 12.25V6.25C13 5.83579 12.6642 5.5 12.25 5.5Z" fill="white"/>
<path d="M16 1H2.5C1.67157 1 1 1.67157 1 2.5V16C1 16.8284 1.67157 17.5 2.5 17.5H16C16.8284 17.5 17.5 16.8284 17.5 16V2.5C17.5 1.67157 16.8284 1 16 1Z" stroke="white" stroke-width="2" stroke-linecap="round" stroke-linejoin="round"/>
<path d="M12.25 28H6.25C5.83579 28 5.5 28.3358 5.5 28.75V34.75C5.5 35.1642 5.83579 35.5 6.25 35.5H12.25C12.6642 35.5 13 35.1642 13 34.75V28.75C13 28.3358 12.6642 28 12.25 28Z" fill="white"/>
<path d="M16 23.5H2.5C1.67157 23.5 1 24.1716 1 25V38.5C1 39.3284 1.67157 40 2.5 40H16C16.8284 40 17.5 39.3284 17.5 38.5V25C17.5 24.1716 16.8284 23.5 16 23.5Z" stroke="white" stroke-width="2" stroke-linecap="round" stroke-linejoin="round"/>
</svg>
