<svg width="38" height="38" viewBox="0 0 38 38" fill="none" xmlns="http://www.w3.org/2000/svg">
<path d="M15.7272 1C12.8144 1 9.96708 1.86373 7.54521 3.48198C5.12333 5.10022 3.23571 7.4003 2.12105 10.0913C1.00638 12.7824 0.714734 15.7435 1.28299 18.6003C1.85124 21.4571 3.25387 24.0812 5.3135 26.1409C7.37313 28.2005 9.99727 29.6031 12.8541 30.1714C15.7109 30.7396 18.672 30.448 21.363 29.3333C24.0541 28.2187 26.3542 26.331 27.9724 23.9092C29.5906 21.4873 30.4544 18.6399 30.4544 15.7272C30.4541 11.8214 28.9024 8.0756 26.1406 5.31377C23.3788 2.55194 19.633 1.00025 15.7272 1Z" stroke="white" stroke-width="2" stroke-miterlimit="10"/>
<path d="M26.7148 26.7147L37.0002 37" stroke="white" stroke-width="2" stroke-miterlimit="10" stroke-linecap="round"/>
</svg>
