<svg width="41" height="43" viewBox="0 0 41 43" fill="none" xmlns="http://www.w3.org/2000/svg">
<path d="M21.091 15.0916C19.86 14.97 18.6214 15.2319 17.545 15.8414C16.4685 16.4509 15.6068 17.3783 15.0777 18.4965C14.5487 19.6147 14.3782 20.869 14.5896 22.0879C14.801 23.3067 15.384 24.4304 16.2587 25.3052C17.1334 26.1799 18.2571 26.7628 19.4759 26.9742C20.6948 27.1857 21.9492 27.0152 23.0674 26.4861C24.1856 25.9571 25.1129 25.0953 25.7224 24.0189C26.332 22.9424 26.5939 21.7039 26.4723 20.4728C26.3337 19.0928 25.7222 17.8031 24.7414 16.8224C23.7607 15.8417 22.471 15.2302 21.091 15.0916ZM35.5379 21.0625C35.5341 21.7147 35.4861 22.3659 35.3945 23.0116L39.6329 26.3359C39.8175 26.4889 39.9418 26.7024 39.9839 26.9384C40.0259 27.1744 39.9829 27.4177 39.8626 27.625L35.8529 34.5625C35.7311 34.7678 35.5408 34.9236 35.3154 35.0023C35.0901 35.081 34.8441 35.0777 34.621 34.9928L30.4116 33.2978C30.1795 33.2054 29.9281 33.172 29.6799 33.2006C29.4317 33.2293 29.1944 33.319 28.9895 33.4619C28.347 33.9043 27.672 34.2973 26.9701 34.6375C26.7494 34.7447 26.5586 34.9047 26.4143 35.1032C26.2701 35.3017 26.177 35.5326 26.1432 35.7756L25.5123 40.2653C25.4708 40.5024 25.3483 40.7178 25.1657 40.8746C24.9831 41.0314 24.7517 41.1199 24.511 41.125H16.4916C16.255 41.1209 16.0267 41.0363 15.8446 40.8852C15.6624 40.734 15.5371 40.5253 15.4895 40.2934L14.8595 35.8103C14.8241 35.5646 14.7285 35.3315 14.5813 35.1316C14.4341 34.9318 14.2398 34.7714 14.0157 34.6647C13.3147 34.3263 12.6419 33.9322 12.0038 33.4862C11.7995 33.3441 11.5631 33.255 11.3158 33.2271C11.0685 33.1991 10.8182 33.233 10.5873 33.3259L6.37883 35.02C6.15581 35.1049 5.90997 35.1084 5.68462 35.0299C5.45927 34.9513 5.26887 34.7958 5.14696 34.5906L1.13727 27.6531C1.01672 27.4459 0.973641 27.2025 1.0157 26.9665C1.05776 26.7304 1.18224 26.5169 1.36696 26.3641L4.94915 23.5516C5.1454 23.3958 5.29964 23.1934 5.39787 22.9629C5.4961 22.7324 5.53521 22.481 5.51165 22.2316C5.4779 21.8406 5.45727 21.4506 5.45727 21.0597C5.45727 20.6688 5.47696 20.2844 5.51165 19.9019C5.53263 19.6539 5.49161 19.4047 5.39226 19.1765C5.29292 18.9484 5.13839 18.7485 4.94258 18.595L1.36227 15.7825C1.18055 15.6288 1.0587 15.4161 1.01807 15.1816C0.977448 14.9471 1.02064 14.7058 1.14008 14.5L5.14977 7.5625C5.27154 7.35718 5.46188 7.20143 5.68724 7.12271C5.9126 7.04399 6.15852 7.04734 6.38165 7.13219L10.591 8.82719C10.8231 8.91961 11.0746 8.953 11.3228 8.92437C11.571 8.89574 11.8082 8.80597 12.0132 8.66312C12.6556 8.22074 13.3307 7.82774 14.0326 7.4875C14.2532 7.38025 14.4441 7.22032 14.5883 7.02182C14.7325 6.82333 14.8257 6.59238 14.8595 6.34937L15.4904 1.85969C15.5318 1.62258 15.6543 1.40722 15.837 1.25041C16.0196 1.09361 16.251 1.0051 16.4916 1H24.511C24.7477 1.00409 24.9759 1.08869 25.1581 1.23984C25.3403 1.391 25.4655 1.5997 25.5132 1.83156L26.1432 6.31469C26.1786 6.56037 26.2741 6.79351 26.4213 6.99338C26.5685 7.19324 26.7628 7.35364 26.987 7.46031C27.688 7.79871 28.3608 8.19278 28.9988 8.63875C29.2031 8.78089 29.4396 8.86996 29.6869 8.89795C29.9341 8.92593 30.1845 8.89195 30.4154 8.79906L34.6238 7.105C34.8469 7.02007 35.0927 7.01657 35.318 7.09512C35.5434 7.17367 35.7338 7.32922 35.8557 7.53437L39.8654 14.4719C39.9859 14.6791 40.029 14.9225 39.987 15.1585C39.9449 15.3946 39.8204 15.6081 39.6357 15.7609L36.0535 18.5734C35.8564 18.7287 35.7013 18.9308 35.6022 19.1614C35.5031 19.3919 35.4633 19.6436 35.4863 19.8934C35.5173 20.2816 35.5379 20.6716 35.5379 21.0625Z" stroke="white" stroke-width="2" stroke-linecap="round" stroke-linejoin="round"/>
</svg>
