<svg width="45" height="42" viewBox="0 0 45 42" fill="none" xmlns="http://www.w3.org/2000/svg">
<path d="M45 29.5509C43.9628 29.4749 42.9342 29.3083 41.9259 29.0531C39.3684 28.4316 36.7847 26.7787 35.5397 24.1378C34.8928 22.7663 35.2922 22.395 36.6516 21.8878C37.9809 21.3937 39.4453 21.1641 40.1072 19.7316C40.6594 18.5353 40.2131 17.1291 39.1312 16.4044C37.6584 15.4172 36.2859 16.3847 34.7606 16.5984C35.1103 12.2241 35.5725 8.295 32.6353 4.62375C30.2006 1.58063 26.3756 0 22.5272 0C18.6788 0 14.8528 1.58063 12.42 4.62469C9.47812 8.30531 9.945 12.2353 10.2947 16.6172C8.76469 16.4062 7.40625 15.4181 5.92313 16.4128C4.54313 17.3363 4.32937 19.2028 5.41313 20.4441C6.49687 21.6853 8.37938 21.3347 9.48656 22.3753C10.095 22.9463 9.81375 23.5575 9.45375 24.2634C8.09625 26.9259 5.77313 28.5516 2.90625 29.0972C2.53125 29.1684 0.814687 29.3662 0 29.4394C0 30.3094 0.0487499 31.0125 0.152812 31.4766C0.428437 32.7009 1.30781 33.6872 2.37375 34.2984C3.42188 34.8984 5.7 34.9012 6.28125 35.7525C6.5625 36.1725 6.44625 36.9037 6.78094 37.3819C7.12117 37.8654 7.63942 38.1942 8.22187 38.2959C9.96656 38.6344 11.7206 37.6209 13.5112 38.0991C14.9034 38.4694 15.9975 39.5869 17.1919 40.3491C18.6459 41.2725 20.2238 41.8884 21.9572 41.9888C25.5291 42.1959 27.5756 40.2159 30.4491 38.5744C32.2772 37.53 34.0256 38.2125 35.9691 38.3231C37.8534 38.4309 38.175 37.4559 38.7459 35.9906C38.8081 35.8439 38.8564 35.6917 38.8903 35.5359C38.9672 35.4994 39.0391 35.4531 39.1041 35.3981C39.2916 35.2509 40.0931 35.1787 40.3003 35.13C41.2641 34.9012 42.2072 34.6472 43.035 34.08C44.0953 33.3525 44.6897 32.3456 44.8706 31.02C44.9548 30.5348 44.9981 30.0434 45 29.5509ZM18 9C18.8288 9 19.5 10.0069 19.5 11.25C19.5 12.4931 18.8288 13.5 18 13.5C17.1712 13.5 16.5 12.4931 16.5 11.25C16.5 10.0069 17.1712 9 18 9ZM27.7144 16.2844C26.2847 17.6906 24.4331 18.4688 22.5 18.4688C21.5288 18.467 20.5675 18.2727 19.6718 17.8972C18.7762 17.5216 17.9639 16.9721 17.2819 16.2806C17.1411 16.1399 17.0621 15.949 17.0621 15.75C17.0621 15.551 17.1411 15.3601 17.2819 15.2194C17.4226 15.0786 17.6135 14.9996 17.8125 14.9996C18.0115 14.9996 18.2024 15.0786 18.3431 15.2194C18.886 15.7713 19.5329 16.21 20.2464 16.5103C20.9599 16.8106 21.7259 16.9664 22.5 16.9688C24.0366 16.9688 25.5141 16.3463 26.6616 15.2156C26.8033 15.076 26.9947 14.9984 27.1936 14.9999C27.3925 15.0014 27.5827 15.0819 27.7223 15.2236C27.862 15.3653 27.9396 15.5567 27.9381 15.7556C27.9366 15.9546 27.8561 16.1448 27.7144 16.2844ZM27 13.5C26.1712 13.5 25.5 12.4922 25.5 11.25C25.5 10.0078 26.1712 9 27 9C27.8288 9 28.5 10.0078 28.5 11.25C28.5 12.4922 27.8288 13.5 27 13.5Z" fill="white"/>
</svg>
