<svg width="39" height="45" viewBox="0 0 39 45" fill="none" xmlns="http://www.w3.org/2000/svg">
<path d="M34.1467 9.62438C33.8429 9.46739 33.5472 9.2953 33.2607 9.10875C32.4275 8.55793 31.6636 7.90889 30.9854 7.17562C29.2885 5.23406 28.6548 3.26437 28.4214 1.88531H28.4307C28.2357 0.740625 28.3164 0 28.3285 0H20.5998V29.8856C20.5998 30.2869 20.5998 30.6834 20.5829 31.0753C20.5829 31.1241 20.5782 31.1691 20.5754 31.2216C20.5754 31.2431 20.5754 31.2656 20.5707 31.2881V31.305C20.4893 32.3773 20.1455 33.4131 19.5698 34.3214C18.994 35.2297 18.2039 35.9825 17.2689 36.5138C16.2944 37.0681 15.1922 37.359 14.071 37.3575C10.4701 37.3575 7.55167 34.4212 7.55167 30.795C7.55167 27.1688 10.4701 24.2325 14.071 24.2325C14.7527 24.2319 15.4301 24.3391 16.0782 24.5503L16.0876 16.6809C14.1201 16.4268 12.1213 16.5832 10.2173 17.1402C8.31331 17.6972 6.54539 18.6427 5.0251 19.9172C3.69298 21.0746 2.57305 22.4557 1.71573 23.9981C1.38948 24.5606 0.158542 26.8209 0.00947987 30.4894C-0.0842701 32.5716 0.541042 34.7288 0.839167 35.6203V35.6391C1.02667 36.1641 1.75323 37.9556 2.93729 39.4659C3.89208 40.6774 5.02012 41.7417 6.2851 42.6244V42.6056L6.30385 42.6244C10.0454 45.1669 14.1939 45 14.1939 45C14.912 44.9709 17.3176 45 20.0495 43.7053C23.0795 42.27 24.8045 40.1316 24.8045 40.1316C25.9065 38.8538 26.7828 37.3977 27.3957 35.8256C28.0951 33.9872 28.3285 31.7822 28.3285 30.9009V15.0459C28.4223 15.1022 29.671 15.9281 29.671 15.9281C29.671 15.9281 31.4701 17.0813 34.277 17.8322C36.2907 18.3666 39.0039 18.4791 39.0039 18.4791V10.8066C38.0532 10.9097 36.1229 10.6097 34.1467 9.62438Z" fill="white"/>
</svg>
