<svg width="32" height="41" viewBox="0 0 32 41" fill="none" xmlns="http://www.w3.org/2000/svg">
<path d="M23.5 14.5H27.25C28.2446 14.5 29.1984 14.8951 29.9017 15.5983C30.6049 16.3016 31 17.2554 31 18.25V36.25C31 37.2446 30.6049 38.1984 29.9017 38.9017C29.1984 39.6049 28.2446 40 27.25 40H4.75C3.75544 40 2.80161 39.6049 2.09835 38.9017C1.39509 38.1984 1 37.2446 1 36.25V18.25C1 17.2554 1.39509 16.3016 2.09835 15.5983C2.80161 14.8951 3.75544 14.5 4.75 14.5H8.5M23.5 8.5L16 1M16 1L8.5 8.5M16 1V26.5938" stroke="white" stroke-width="2" stroke-linecap="round" stroke-linejoin="round"/>
</svg>
