<svg width="32" height="44" viewBox="0 0 32 44" fill="none" xmlns="http://www.w3.org/2000/svg">
<path d="M26.5 1H5.5C3.01472 1 1 3.01472 1 5.5V38.5C1 40.9853 3.01472 43 5.5 43H26.5C28.9853 43 31 40.9853 31 38.5V5.5C31 3.01472 28.9853 1 26.5 1Z" stroke="white" stroke-width="2" stroke-linejoin="round"/>
<path d="M11.5 5.5H20.5" stroke="white" stroke-width="2" stroke-linecap="round" stroke-linejoin="round"/>
<path d="M23.2637 24.6728C22.9099 24.2959 22.4814 23.9969 22.0055 23.795C21.5296 23.593 21.0169 23.4926 20.5 23.5C19.4125 23.5 18.429 23.9135 17.7306 24.6653C17.0321 25.4172 16.6806 26.4578 16.7612 27.5716C16.9215 29.7728 18.5987 31.5625 20.5 31.5625C22.4012 31.5625 24.0756 29.7728 24.2378 27.5735C24.3203 26.4691 23.9734 25.4388 23.2637 24.6728ZM26.8459 40H14.154C13.9888 40.0027 13.825 39.969 13.6742 39.9015C13.5234 39.8339 13.3892 39.7341 13.2812 39.6091C13.1641 39.4688 13.08 39.3039 13.0352 39.1267C12.9904 38.9495 12.9861 38.7645 13.0225 38.5853C13.3271 36.9391 14.2768 35.5563 15.7693 34.586C17.095 33.7244 18.775 33.25 20.5 33.25C22.225 33.25 23.905 33.7244 25.2306 34.586C26.7231 35.5563 27.6728 36.9391 27.9775 38.5853C28.0139 38.7645 28.0095 38.9495 27.9647 39.1267C27.9199 39.3039 27.8358 39.4688 27.7187 39.6091C27.6107 39.7341 27.4765 39.8339 27.3257 39.9015C27.1749 39.969 27.0111 40.0027 26.8459 40Z" fill="white"/>
</svg>
