<svg width="42" height="42" viewBox="0 0 42 42" fill="none" xmlns="http://www.w3.org/2000/svg">
<path fill-rule="evenodd" clip-rule="evenodd" d="M35.8809 6.10322C33.9394 4.16079 31.6329 2.62155 29.0941 1.57411C26.5554 0.526682 23.8345 -0.00825602 21.0881 9.63184e-05C9.5625 9.63184e-05 0.18 9.33572 0.175312 20.8126C0.170214 24.4671 1.13353 28.0577 2.96719 31.2188L0 42.0001L11.0859 39.106C14.1546 40.7684 17.5897 41.6385 21.0797 41.6373H21.0881C32.6128 41.6373 41.9944 32.3007 42 20.8248C42.007 18.0878 41.4696 15.3768 40.4191 12.8494C39.3686 10.3221 37.8259 8.02885 35.8809 6.10322ZM21.0881 38.1245H21.0806C17.9694 38.1254 14.9148 37.2928 12.2344 35.7132L11.5997 35.3382L5.02125 37.0557L6.77719 30.6723L6.36375 30.016C4.62411 27.2618 3.70242 24.0702 3.70594 20.8126C3.70594 11.2754 11.5069 3.51572 21.0947 3.51572C25.6941 3.50751 30.1083 5.32653 33.3666 8.57271C36.625 11.8189 38.4604 16.2264 38.4694 20.8257C38.4656 30.3638 30.6684 38.1245 21.0881 38.1245ZM30.6216 25.1692C30.0994 24.9085 27.5278 23.6504 27.0516 23.477C26.5753 23.3035 26.2238 23.2163 25.8759 23.7376C25.5281 24.2588 24.5259 25.4251 24.2212 25.7767C23.9166 26.1282 23.6119 26.1667 23.0897 25.906C22.5675 25.6454 20.8828 25.097 18.8869 23.3251C17.3334 21.946 16.2853 20.2435 15.9806 19.7232C15.6759 19.2029 15.9478 18.9207 16.2094 18.662C16.4447 18.4285 16.7316 18.0545 16.9931 17.7507C17.2547 17.447 17.3419 17.2295 17.5153 16.8826C17.6887 16.5357 17.6025 16.232 17.4722 15.9723C17.3419 15.7126 16.2966 13.1523 15.8616 12.1107C15.4369 11.0963 15.0066 11.2342 14.6859 11.2182C14.3812 11.2032 14.0297 11.1995 13.6838 11.1995C13.4193 11.2064 13.1591 11.2677 12.9194 11.3796C12.6797 11.4916 12.4657 11.6517 12.2906 11.8501C11.8116 12.3713 10.4616 13.6313 10.4616 16.1888C10.4616 18.7463 12.3366 21.2213 12.5953 21.5682C12.8541 21.9151 16.2797 27.1679 21.5212 29.4207C22.4946 29.8375 23.489 30.203 24.5006 30.5157C25.7522 30.9114 26.8913 30.856 27.7913 30.722C28.7953 30.5729 30.885 29.4639 31.3191 28.2488C31.7531 27.0338 31.7541 25.9932 31.6238 25.7767C31.4934 25.5601 31.1447 25.4289 30.6216 25.1692Z" fill="white"/>
</svg>
