<svg width="40" height="31" viewBox="0 0 40 31" fill="none" xmlns="http://www.w3.org/2000/svg">
<path d="M28.4487 19.3945C26.1148 17.3199 23.1007 16.1739 19.978 16.1739C16.8552 16.1739 13.8411 17.3199 11.5072 19.3945C11.31 19.5652 11.1486 19.7733 11.0325 20.0069C10.9164 20.2404 10.8479 20.4947 10.8309 20.7549C10.8138 21.0151 10.8487 21.2762 10.9334 21.5228C11.0181 21.7695 11.151 21.9968 11.3243 22.1917C11.4977 22.3866 11.708 22.5451 11.9431 22.658C12.1781 22.7709 12.4333 22.836 12.6938 22.8494C12.9542 22.8629 13.2148 22.8245 13.4602 22.7364C13.7057 22.6483 13.9312 22.5124 14.1237 22.3364C15.7368 20.9028 17.8199 20.1109 19.978 20.1109C22.136 20.1109 24.2191 20.9028 25.8322 22.3364C26.2225 22.6834 26.7348 22.8611 27.2561 22.8304C27.7775 22.7997 28.2654 22.5632 28.6123 22.1728C28.9593 21.7825 29.137 21.2702 29.1063 20.7489C29.0756 20.2275 28.8391 19.7396 28.4487 19.3927V19.3945Z" fill="white"/>
<path d="M19.9763 8.08828C14.6904 8.08099 9.60075 10.09 5.74501 13.7058C5.54979 13.8806 5.39145 14.0927 5.27928 14.3296C5.1671 14.5665 5.10336 14.8234 5.09177 15.0852C5.08018 15.347 5.12099 15.6085 5.2118 15.8544C5.30261 16.1002 5.4416 16.3255 5.62061 16.5169C5.79962 16.7083 6.01505 16.8621 6.25426 16.9692C6.49348 17.0763 6.75167 17.1345 7.01369 17.1405C7.27571 17.1464 7.53628 17.1 7.78014 17.004C8.02399 16.9079 8.2462 16.7642 8.43376 16.5811C11.5645 13.6541 15.6904 12.0258 19.9763 12.0258C24.2622 12.0258 28.388 13.6541 31.5188 16.5811C31.7063 16.7642 31.9285 16.9079 32.1724 17.004C32.4162 17.1 32.6768 17.1464 32.9388 17.1405C33.2008 17.1345 33.459 17.0763 33.6983 16.9692C33.9375 16.8621 34.1529 16.7083 34.3319 16.5169C34.5109 16.3255 34.6499 16.1002 34.7407 15.8544C34.8315 15.6085 34.8723 15.347 34.8607 15.0852C34.8492 14.8234 34.7854 14.5665 34.6732 14.3296C34.5611 14.0927 34.4027 13.8806 34.2075 13.7058C30.3518 10.09 25.2621 8.08099 19.9763 8.08828Z" fill="white"/>
<path d="M39.2625 7.35327C33.9547 2.61736 27.0898 0 19.9763 0C12.8628 0 5.99791 2.61736 0.690043 7.35327C0.490558 7.52367 0.327143 7.73222 0.2094 7.96667C0.0916574 8.20113 0.0219628 8.45675 0.00441089 8.71852C-0.013141 8.98028 0.0218041 9.24292 0.107193 9.49099C0.192582 9.73907 0.326691 9.96757 0.501642 10.1631C0.676593 10.3586 0.888855 10.5172 1.12596 10.6295C1.36306 10.7418 1.62022 10.8056 1.88232 10.8171C2.14442 10.8286 2.40619 10.7876 2.65222 10.6965C2.89826 10.6055 3.12362 10.4661 3.31504 10.2867C7.90095 6.19675 13.831 3.93651 19.9758 3.93651C26.1206 3.93651 32.0507 6.19675 36.6366 10.2867C37.0258 10.6348 37.5374 10.814 38.0588 10.7849C38.5802 10.7558 39.0687 10.5208 39.4168 10.1315C39.7649 9.7423 39.9441 9.23072 39.915 8.70934C39.8859 8.18796 39.6508 7.69949 39.2616 7.35139L39.2625 7.35327Z" fill="white"/>
<path d="M19.9766 30.7486C21.6334 30.7486 22.9766 29.4055 22.9766 27.7486C22.9766 26.0917 21.6334 24.7486 19.9766 24.7486C18.3197 24.7486 16.9766 26.0917 16.9766 27.7486C16.9766 29.4055 18.3197 30.7486 19.9766 30.7486Z" fill="white"/>
</svg>
