<svg width="26" height="26" viewBox="0 0 26 26" fill="none" xmlns="http://www.w3.org/2000/svg">
<path d="M15.9358 12.7539L24.842 3.84765C25.2647 3.42571 25.5025 2.85314 25.503 2.25589C25.5035 1.65865 25.2668 1.08565 24.8448 0.662966C24.4229 0.240277 23.8503 0.00251657 23.2531 0.00198913C22.6558 0.00146168 22.0828 0.23821 21.6602 0.660153L12.7539 9.5664L3.84765 0.660153C3.42496 0.237464 2.85168 0 2.2539 0C1.65613 0 1.08284 0.237464 0.660153 0.660153C0.237464 1.08284 0 1.65613 0 2.2539C0 2.85168 0.237464 3.42496 0.660153 3.84765L9.5664 12.7539L0.660153 21.6602C0.237464 22.0828 0 22.6561 0 23.2539C0 23.8517 0.237464 24.425 0.660153 24.8477C1.08284 25.2703 1.65613 25.5078 2.2539 25.5078C2.85168 25.5078 3.42496 25.2703 3.84765 24.8477L12.7539 15.9414L21.6602 24.8477C22.0828 25.2703 22.6561 25.5078 23.2539 25.5078C23.8517 25.5078 24.425 25.2703 24.8477 24.8477C25.2703 24.425 25.5078 23.8517 25.5078 23.2539C25.5078 22.6561 25.2703 22.0828 24.8477 21.6602L15.9358 12.7539Z" fill="white"/>
</svg>
