<svg width="209" height="162" viewBox="0 0 209 162" fill="none" xmlns="http://www.w3.org/2000/svg">
<path d="M153.836 56.8748C154.556 57.5941 154.556 58.7602 153.836 59.4795L140.813 72.5027L138.208 69.8981L151.232 56.8748C151.951 56.1555 153.117 56.1555 153.836 56.8748Z" fill="white"/>
<path d="M136.907 68.5957L140.814 72.5027C139.375 73.9412 137.043 73.9412 135.604 72.5027L134.302 71.2004L136.907 68.5957Z" fill="white"/>
<path d="M125.186 62.0841C126.624 60.6456 128.957 60.6456 130.395 62.0841L131.698 63.3864L129.093 65.9911L125.186 62.0841Z" fill="white"/>
<path d="M125.186 62.084L127.79 64.6887L119.976 72.5026C118.538 71.0641 118.538 68.7319 119.976 67.2933L125.186 62.084Z" fill="white"/>
<rect x="122.581" y="69.8981" width="11.0506" height="3.68353" transform="rotate(45 122.581 69.8981)" fill="white"/>
<path d="M130.395 77.712C131.834 79.1505 131.834 81.4828 130.395 82.9213L112.162 101.154C110.724 102.592 108.392 102.592 106.953 101.154L130.395 77.712Z" fill="white"/>
<rect x="96.5347" y="85.5259" width="18.4177" height="3.68353" transform="rotate(45 96.5347 85.5259)" fill="white"/>
<path d="M71.7904 63.3864C72.5097 62.6671 73.6758 62.6671 74.3951 63.3864L91.3253 80.3166L88.7207 82.9213L71.7904 65.991C71.0712 65.2718 71.0712 64.1056 71.7904 63.3864Z" fill="white"/>
<path d="M56.38 60.1306C55.6607 59.4113 55.6607 58.2452 56.38 57.5259L69.4032 44.5027L72.0079 47.1073L58.9846 60.1306C58.2654 60.8498 57.0992 60.8498 56.38 60.1306Z" fill="white"/>
<path d="M73.3101 48.4097L69.4031 44.5027C70.8416 43.0642 73.1739 43.0642 74.6124 44.5027L75.9147 45.805L73.3101 48.4097Z" fill="white"/>
<path d="M85.0309 54.9213C83.5924 56.3599 81.2601 56.3599 79.8216 54.9213L78.5193 53.619L81.1239 51.0144L85.0309 54.9213Z" fill="white"/>
<path d="M85.0312 54.9213L82.4266 52.3167L90.2406 44.5027C91.6791 45.9412 91.6791 48.2735 90.2406 49.712L85.0312 54.9213Z" fill="white"/>
<rect x="87.6357" y="47.1074" width="11.0506" height="3.68353" transform="rotate(-135 87.6357 47.1074)" fill="white"/>
<path d="M79.8218 39.2934C78.3833 37.8549 78.3833 35.5226 79.8218 34.0841L98.0543 15.8515C99.4928 14.413 101.825 14.413 103.264 15.8515L79.8218 39.2934Z" fill="white"/>
<rect x="113.682" y="31.4795" width="18.4177" height="3.68353" transform="rotate(-135 113.682 31.4795)" fill="white"/>
<path d="M138.427 53.619C137.708 54.3383 136.541 54.3383 135.822 53.619L118.892 36.6888L121.497 34.0841L138.427 51.0143C139.146 51.7336 139.146 52.8997 138.427 53.619Z" fill="white"/>
<path d="M128.875 73.588L126.271 70.9834L147.108 50.1462C148.547 51.5847 148.547 53.9169 147.108 55.3555L128.875 73.588Z" fill="white"/>
<rect x="144.503" y="52.7508" width="18.4177" height="3.68353" transform="rotate(-135 144.503 52.7508)" fill="white"/>
<path d="M111.946 41.0298C110.507 39.5913 110.507 37.2591 111.946 35.8205L119.76 28.0066L122.364 30.6112L111.946 41.0298Z" fill="white"/>
<path d="M118.457 47.5415L111.945 41.0299L114.55 38.4252L121.062 44.9369L118.457 47.5415Z" fill="white"/>
<path d="M123.667 47.5415C122.228 48.98 119.896 48.98 118.457 47.5415L122.364 43.6346L124.969 46.2392L123.667 47.5415Z" fill="white"/>
<path d="M122.364 30.6112L104.132 12.3786C103.412 11.6594 103.412 10.4933 104.132 9.774C104.851 9.05474 106.017 9.05474 106.736 9.774L122.364 25.4019C123.803 26.8404 123.803 29.1727 122.364 30.6112Z" fill="white"/>
<path d="M110.643 91.8207C109.924 92.5399 108.758 92.5399 108.038 91.8207C107.319 91.1014 107.319 89.9353 108.038 89.216L121.062 76.1928L123.666 78.7974L110.643 91.8207Z" fill="white"/>
<path d="M128.876 37.1229C130.314 35.6844 132.647 35.6844 134.085 37.1229L130.178 41.0299L127.573 38.4252L128.876 37.1229Z" fill="white"/>
<path d="M80.9067 43.4177L83.5114 46.0223L62.6742 66.8595C61.2357 65.421 61.2357 63.0887 62.6742 61.6502L80.9067 43.4177Z" fill="white"/>
<rect x="65.2788" y="64.2548" width="18.4177" height="3.68353" transform="rotate(45 65.2788 64.2548)" fill="white"/>
<path d="M97.8369 75.9757C99.2754 77.4142 99.2754 79.7465 97.8369 81.185L90.023 88.999L87.4183 86.3943L97.8369 75.9757Z" fill="white"/>
<path d="M91.3257 69.4642L97.8373 75.9758L95.2327 78.5805L88.721 72.0688L91.3257 69.4642Z" fill="white"/>
<path d="M86.1161 69.4641C87.5546 68.0256 89.8868 68.0256 91.3254 69.4641L87.4184 73.3711L84.8137 70.7664L86.1161 69.4641Z" fill="white"/>
<path d="M87.418 86.3943L105.651 104.627C106.37 105.346 106.37 106.512 105.651 107.231C104.931 107.951 103.765 107.951 103.046 107.231L87.418 91.6036C85.9795 90.1651 85.9795 87.8328 87.418 86.3943Z" fill="white"/>
<path d="M99.1391 25.185C99.8583 24.4658 101.024 24.4658 101.744 25.185C102.463 25.9043 102.463 27.0704 101.744 27.7897L88.7205 40.8129L86.1158 38.2083L99.1391 25.185Z" fill="white"/>
<path d="M80.9064 79.8827C79.4679 81.3212 77.1356 81.3212 75.6971 79.8827L79.6041 75.9757L82.2087 78.5803L80.9064 79.8827Z" fill="white"/>
<path d="M156.05 52.4647C159.565 55.9794 159.565 61.678 156.05 65.1926L105 116.243L53.9495 65.1926C50.4349 61.678 50.435 55.9794 53.9495 52.4647L105 1.41422L156.05 52.4647Z" stroke="white" stroke-width="2"/>
<path d="M96.2176 68.9244C96.0043 68.9244 95.855 68.8498 95.7696 68.7004C95.6843 68.5511 95.6416 68.3911 95.6416 68.2204C95.663 67.8578 95.7483 67.6551 95.8976 67.6124C96.047 67.5698 96.2283 67.5484 96.4416 67.5484C97.1243 67.5484 97.6043 67.4311 97.8816 67.1964C98.159 66.9404 98.3296 66.6311 98.3936 66.2684C98.479 65.8844 98.5216 65.4898 98.5216 65.0844V52.4124C98.5216 52.0071 98.479 51.6124 98.3936 51.2284C98.3296 50.8444 98.159 50.5351 97.8816 50.3004C97.6043 50.0444 97.1243 49.9164 96.4416 49.9164C96.2283 49.9164 96.047 49.8951 95.8976 49.8524C95.7483 49.8098 95.663 49.6071 95.6416 49.2444C95.6416 49.0738 95.6843 48.9138 95.7696 48.7644C95.855 48.6151 96.0043 48.5404 96.2176 48.5404C96.9003 48.5618 97.5403 48.5831 98.1376 48.6044C98.7563 48.6258 99.3856 48.6364 100.026 48.6364H105.53C107.258 48.6578 108.655 48.9244 109.722 49.4364C110.81 49.9484 111.599 50.5991 112.09 51.3884C112.58 52.1778 112.826 52.9991 112.826 53.8524C112.826 54.9831 112.367 56.0498 111.45 57.0524C110.554 58.0551 109.284 58.7698 107.642 59.1964C108.452 60.4764 109.274 61.7671 110.106 63.0684C110.938 64.3484 111.898 65.5538 112.986 66.6844C113.284 66.9191 113.572 67.1111 113.85 67.2604C114.148 67.4098 114.5 67.5058 114.906 67.5484C115.076 67.5698 115.247 67.6018 115.418 67.6444C115.588 67.6658 115.684 67.8578 115.706 68.2204C115.706 68.3911 115.663 68.5511 115.578 68.7004C115.492 68.8498 115.343 68.9244 115.13 68.9244C114.682 68.9031 114.319 68.8818 114.042 68.8604C113.786 68.8604 113.53 68.8498 113.274 68.8284C113.018 68.8284 112.676 68.8284 112.25 68.8284C111.375 68.6578 110.628 68.3484 110.01 67.9004C109.412 67.4524 108.826 66.8338 108.25 66.0444C107.652 65.2338 107.098 64.4124 106.586 63.5804C106.074 62.7484 105.572 61.9378 105.082 61.1484C104.804 60.7004 104.516 60.3804 104.218 60.1884C103.94 59.9751 103.407 59.8684 102.618 59.8684H101.69V65.0844C101.711 65.4898 101.754 65.8844 101.818 66.2684C101.882 66.6311 102.052 66.9404 102.33 67.1964C102.628 67.4311 103.108 67.5484 103.77 67.5484C103.983 67.5484 104.164 67.5698 104.314 67.6124C104.463 67.6551 104.548 67.8578 104.57 68.2204C104.57 68.3911 104.527 68.5511 104.442 68.7004C104.356 68.8498 104.207 68.9244 103.994 68.9244C102.628 68.8604 101.295 68.8284 99.9936 68.8284C99.3536 68.8284 98.735 68.8284 98.1376 68.8284C97.5403 68.8498 96.9003 68.8818 96.2176 68.9244ZM101.69 58.6204H104.506C105.594 58.6204 106.447 58.4711 107.066 58.1724C107.706 57.8738 108.186 57.4898 108.506 57.0204C108.826 56.5511 109.028 56.0604 109.114 55.5484C109.22 55.0364 109.274 54.5671 109.274 54.1404C109.274 53.4364 109.114 52.7538 108.794 52.0924C108.495 51.4311 107.951 50.8871 107.162 50.4604C106.394 50.0338 105.316 49.8204 103.93 49.8204C103.012 49.8204 102.404 50.0018 102.106 50.3644C101.828 50.7058 101.69 51.4098 101.69 52.4764V58.6204Z" fill="white"/>
<path d="M3.3655 160.972C3.0455 160.972 2.8215 160.86 2.6935 160.636C2.5655 160.412 2.5015 160.172 2.5015 159.916C2.5335 159.372 2.6615 159.068 2.8855 159.004C3.1095 158.94 3.3815 158.908 3.7015 158.908C4.7255 158.908 5.4455 158.732 5.8615 158.38C6.2775 157.996 6.5335 157.532 6.6295 156.988C6.7575 156.412 6.8215 155.82 6.8215 155.212V136.204C6.8215 135.596 6.7575 135.004 6.6295 134.428C6.5335 133.852 6.2775 133.388 5.8615 133.036C5.4455 132.652 4.7255 132.46 3.7015 132.46C3.3815 132.46 3.1095 132.428 2.8855 132.364C2.6615 132.3 2.5335 131.996 2.5015 131.452C2.5015 131.196 2.5655 130.956 2.6935 130.732C2.8215 130.508 3.0455 130.396 3.3655 130.396C4.3895 130.428 5.3495 130.46 6.2455 130.492C7.1735 130.524 8.1175 130.54 9.0775 130.54H17.3335C19.9255 130.572 22.0215 130.972 23.6215 131.74C25.2535 132.508 26.4375 133.484 27.1735 134.668C27.9095 135.852 28.2775 137.084 28.2775 138.364C28.2775 140.06 27.5895 141.66 26.2135 143.164C24.8695 144.668 22.9655 145.74 20.5015 146.38C21.7175 148.3 22.9495 150.236 24.1975 152.188C25.4455 154.108 26.8855 155.916 28.5175 157.612C28.9655 157.964 29.3975 158.252 29.8135 158.476C30.2615 158.7 30.7895 158.844 31.3975 158.908C31.6535 158.94 31.9095 158.988 32.1655 159.052C32.4215 159.084 32.5655 159.372 32.5975 159.916C32.5975 160.172 32.5335 160.412 32.4055 160.636C32.2775 160.86 32.0535 160.972 31.7335 160.972C31.0615 160.94 30.5175 160.908 30.1015 160.876C29.7175 160.876 29.3335 160.86 28.9495 160.828C28.5655 160.828 28.0535 160.828 27.4135 160.828C26.1015 160.572 24.9815 160.108 24.0535 159.436C23.1575 158.764 22.2775 157.836 21.4135 156.652C20.5175 155.436 19.6855 154.204 18.9175 152.956C18.1495 151.708 17.3975 150.492 16.6615 149.308C16.2455 148.636 15.8135 148.156 15.3655 147.868C14.9495 147.548 14.1495 147.388 12.9655 147.388H11.5735V155.212C11.6055 155.82 11.6695 156.412 11.7655 156.988C11.8615 157.532 12.1175 157.996 12.5335 158.38C12.9815 158.732 13.7015 158.908 14.6935 158.908C15.0135 158.908 15.2855 158.94 15.5095 159.004C15.7335 159.068 15.8615 159.372 15.8935 159.916C15.8935 160.172 15.8295 160.412 15.7015 160.636C15.5735 160.86 15.3495 160.972 15.0295 160.972C12.9815 160.876 10.9815 160.828 9.0295 160.828C8.0695 160.828 7.1415 160.828 6.2455 160.828C5.3495 160.86 4.3895 160.908 3.3655 160.972ZM11.5735 145.516H15.7975C17.4295 145.516 18.7095 145.292 19.6375 144.844C20.5975 144.396 21.3175 143.82 21.7975 143.116C22.2775 142.412 22.5815 141.676 22.7095 140.908C22.8695 140.14 22.9495 139.436 22.9495 138.796C22.9495 137.74 22.7095 136.716 22.2295 135.724C21.7815 134.732 20.9655 133.916 19.7815 133.276C18.6295 132.636 17.0135 132.316 14.9335 132.316C13.5575 132.316 12.6455 132.588 12.1975 133.132C11.7815 133.644 11.5735 134.7 11.5735 136.3V145.516ZM32.9286 160.972C32.6086 160.972 32.3846 160.86 32.2566 160.636C32.1286 160.412 32.0646 160.172 32.0646 159.916C32.0966 159.372 32.2246 159.068 32.4486 159.004C32.6726 158.94 32.9446 158.908 33.2646 158.908C34.1286 158.908 34.7846 158.732 35.2326 158.38C35.6806 158.028 36.0326 157.564 36.2886 156.988C36.5766 156.412 36.8486 155.82 37.1046 155.212L45.5046 135.34C45.8246 134.572 45.8886 133.996 45.6966 133.612C45.5046 133.196 45.1846 132.908 44.7366 132.748C44.2886 132.556 43.7926 132.412 43.2486 132.316C42.7686 132.22 42.4486 132.14 42.2886 132.076C42.1286 131.98 42.0486 131.692 42.0486 131.212C42.0486 130.668 42.2406 130.38 42.6246 130.348C43.0086 130.284 43.4566 130.252 43.9686 130.252C45.2806 130.252 46.4006 130.38 47.3286 130.636C48.2566 130.892 49.0566 131.388 49.7286 132.124C50.4006 132.828 51.0246 133.9 51.6006 135.34L59.6646 155.212C59.8886 155.756 60.1286 156.316 60.3846 156.892C60.6406 157.468 60.9766 157.948 61.3926 158.332C61.8406 158.684 62.4006 158.876 63.0726 158.908C63.4246 158.908 63.6966 158.94 63.8886 159.004C64.1126 159.068 64.2406 159.372 64.2726 159.916C64.2726 160.172 64.1926 160.412 64.0326 160.636C63.9046 160.86 63.6966 160.972 63.4086 160.972C62.3846 160.908 61.4886 160.86 60.7206 160.828C59.9526 160.828 59.0886 160.828 58.1286 160.828C56.2406 160.828 54.2566 160.876 52.1766 160.972C51.8566 160.972 51.6326 160.86 51.5046 160.636C51.3766 160.412 51.3126 160.172 51.3126 159.916C51.3446 159.372 51.4726 159.068 51.6966 159.004C51.9206 158.94 52.1926 158.908 52.5126 158.908C54.0806 158.908 54.9286 158.62 55.0566 158.044C55.2166 157.468 55.0726 156.524 54.6246 155.212L52.9926 151.228H41.1366C40.6566 152.444 40.3046 153.324 40.0806 153.868C39.8886 154.412 39.7606 154.764 39.6966 154.924C39.6646 155.084 39.6326 155.18 39.6006 155.212C39.2486 156.3 39.0566 157.116 39.0246 157.66C39.0246 158.172 39.2806 158.508 39.7926 158.668C40.3366 158.828 41.2326 158.908 42.4806 158.908C42.8326 158.908 43.1046 158.94 43.2966 159.004C43.5206 159.068 43.6486 159.372 43.6806 159.916C43.6806 160.172 43.6006 160.412 43.4406 160.636C43.3126 160.86 43.1046 160.972 42.8166 160.972C41.7926 160.908 40.8966 160.86 40.1286 160.828C39.3926 160.828 38.5446 160.828 37.5846 160.828C36.9446 160.828 36.4006 160.828 35.9526 160.828C35.5366 160.86 35.1046 160.876 34.6566 160.876C34.2086 160.908 33.6326 160.94 32.9286 160.972ZM42.0486 149.164H52.1286L47.2806 136.828H47.1366L42.0486 149.164ZM82.6221 161.068C82.4301 161.068 82.2381 161.02 82.0461 160.924C81.8541 160.86 81.7101 160.748 81.6141 160.588L70.8141 136.156H70.6701L70.7661 155.212C70.7981 155.82 70.8461 156.412 70.9101 156.988C71.0061 157.532 71.2621 157.996 71.6781 158.38C72.0941 158.732 72.7981 158.908 73.7901 158.908C74.1421 158.908 74.4301 158.94 74.6541 159.004C74.8781 159.068 75.0061 159.372 75.0381 159.916C75.0381 160.172 74.9581 160.412 74.7981 160.636C74.6701 160.86 74.4621 160.972 74.1741 160.972C73.5021 160.94 72.9581 160.908 72.5421 160.876C72.1261 160.876 71.7261 160.86 71.3421 160.828C70.9581 160.828 70.4461 160.828 69.8061 160.828C68.8461 160.828 68.0621 160.828 67.4541 160.828C66.8781 160.86 66.0781 160.908 65.0541 160.972C64.7341 160.972 64.5101 160.86 64.3821 160.636C64.2541 160.412 64.1901 160.172 64.1901 159.916C64.2221 159.372 64.3501 159.068 64.5741 159.004C64.7981 158.94 65.0701 158.908 65.3901 158.908C66.4141 158.908 67.1181 158.732 67.5021 158.38C67.9181 157.996 68.1741 157.532 68.2701 156.988C68.3661 156.412 68.4141 155.82 68.4141 155.212L68.5101 136.156C68.5101 135.132 68.3981 134.38 68.1741 133.9C67.9501 133.388 67.5981 133.036 67.1181 132.844C66.6381 132.62 66.0301 132.444 65.2941 132.316C64.8461 132.22 64.5261 132.14 64.3341 132.076C64.1741 132.012 64.0941 131.724 64.0941 131.212C64.0941 130.668 64.2861 130.38 64.6701 130.348C65.0541 130.284 65.5021 130.252 66.0141 130.252C67.5821 130.252 68.9581 130.38 70.1421 130.636C71.3581 130.892 72.4141 131.388 73.3101 132.124C74.2061 132.828 74.9421 133.9 75.5181 135.34L83.7741 153.868H83.9181L93.3741 130.54H96.1101C97.0701 130.54 97.9981 130.524 98.8941 130.492C99.8221 130.46 100.798 130.428 101.822 130.396C102.142 130.396 102.366 130.508 102.494 130.732C102.622 130.956 102.686 131.196 102.686 131.452C102.654 131.996 102.526 132.3 102.302 132.364C102.078 132.428 101.806 132.46 101.486 132.46C100.494 132.46 99.7741 132.652 99.3261 133.036C98.9101 133.388 98.6541 133.852 98.5581 134.428C98.4621 134.972 98.3981 135.548 98.3661 136.156V155.212C98.3981 155.82 98.4621 156.412 98.5581 156.988C98.6541 157.532 98.9101 157.996 99.3261 158.38C99.7741 158.732 100.494 158.908 101.486 158.908C101.806 158.908 102.078 158.94 102.302 159.004C102.526 159.068 102.654 159.372 102.686 159.916C102.686 160.172 102.622 160.412 102.494 160.636C102.366 160.86 102.142 160.972 101.822 160.972C100.798 160.908 99.8221 160.86 98.8941 160.828C97.9661 160.828 97.0221 160.828 96.0621 160.828C94.2061 160.828 92.2381 160.876 90.1581 160.972C89.8381 160.972 89.6141 160.86 89.4861 160.636C89.3581 160.412 89.2941 160.172 89.2941 159.916C89.3261 159.372 89.4541 159.068 89.6781 159.004C89.9021 158.94 90.1741 158.908 90.4941 158.908C91.5181 158.908 92.2381 158.732 92.6541 158.38C93.0701 157.996 93.3261 157.532 93.4221 156.988C93.5501 156.412 93.6141 155.82 93.6141 155.212V136.156H93.4701L83.5821 160.588C83.5181 160.748 83.3901 160.86 83.1981 160.924C83.0061 161.02 82.8141 161.068 82.6221 161.068ZM125.278 161.068C125.086 161.068 124.894 161.02 124.702 160.924C124.51 160.86 124.366 160.748 124.27 160.588L113.47 136.156H113.326L113.422 155.212C113.454 155.82 113.502 156.412 113.566 156.988C113.662 157.532 113.918 157.996 114.334 158.38C114.75 158.732 115.454 158.908 116.446 158.908C116.798 158.908 117.086 158.94 117.31 159.004C117.534 159.068 117.662 159.372 117.694 159.916C117.694 160.172 117.614 160.412 117.454 160.636C117.326 160.86 117.118 160.972 116.83 160.972C116.158 160.94 115.614 160.908 115.198 160.876C114.782 160.876 114.382 160.86 113.998 160.828C113.614 160.828 113.102 160.828 112.462 160.828C111.502 160.828 110.718 160.828 110.11 160.828C109.534 160.86 108.734 160.908 107.71 160.972C107.39 160.972 107.166 160.86 107.038 160.636C106.91 160.412 106.846 160.172 106.846 159.916C106.878 159.372 107.006 159.068 107.23 159.004C107.454 158.94 107.726 158.908 108.046 158.908C109.07 158.908 109.774 158.732 110.158 158.38C110.574 157.996 110.83 157.532 110.926 156.988C111.022 156.412 111.07 155.82 111.07 155.212L111.166 136.156C111.166 135.132 111.054 134.38 110.83 133.9C110.606 133.388 110.254 133.036 109.774 132.844C109.294 132.62 108.686 132.444 107.95 132.316C107.502 132.22 107.182 132.14 106.99 132.076C106.83 132.012 106.75 131.724 106.75 131.212C106.75 130.668 106.942 130.38 107.326 130.348C107.71 130.284 108.158 130.252 108.67 130.252C110.238 130.252 111.614 130.38 112.798 130.636C114.014 130.892 115.07 131.388 115.966 132.124C116.862 132.828 117.598 133.9 118.174 135.34L126.43 153.868H126.574L136.03 130.54H138.766C139.726 130.54 140.654 130.524 141.55 130.492C142.478 130.46 143.454 130.428 144.478 130.396C144.798 130.396 145.022 130.508 145.15 130.732C145.278 130.956 145.342 131.196 145.342 131.452C145.31 131.996 145.182 132.3 144.958 132.364C144.734 132.428 144.462 132.46 144.142 132.46C143.15 132.46 142.43 132.652 141.982 133.036C141.566 133.388 141.31 133.852 141.214 134.428C141.118 134.972 141.054 135.548 141.022 136.156V155.212C141.054 155.82 141.118 156.412 141.214 156.988C141.31 157.532 141.566 157.996 141.982 158.38C142.43 158.732 143.15 158.908 144.142 158.908C144.462 158.908 144.734 158.94 144.958 159.004C145.182 159.068 145.31 159.372 145.342 159.916C145.342 160.172 145.278 160.412 145.15 160.636C145.022 160.86 144.798 160.972 144.478 160.972C143.454 160.908 142.478 160.86 141.55 160.828C140.622 160.828 139.678 160.828 138.718 160.828C136.862 160.828 134.894 160.876 132.814 160.972C132.494 160.972 132.27 160.86 132.142 160.636C132.014 160.412 131.95 160.172 131.95 159.916C131.982 159.372 132.11 159.068 132.334 159.004C132.558 158.94 132.83 158.908 133.15 158.908C134.174 158.908 134.894 158.732 135.31 158.38C135.726 157.996 135.982 157.532 136.078 156.988C136.206 156.412 136.27 155.82 136.27 155.212V136.156H136.126L126.238 160.588C126.174 160.748 126.046 160.86 125.854 160.924C125.662 161.02 125.47 161.068 125.278 161.068ZM147.679 160.972C147.359 160.972 147.135 160.86 147.007 160.636C146.879 160.412 146.815 160.172 146.815 159.916C146.847 159.372 146.975 159.068 147.199 159.004C147.423 158.94 147.695 158.908 148.015 158.908C148.879 158.908 149.535 158.732 149.983 158.38C150.431 158.028 150.783 157.564 151.039 156.988C151.327 156.412 151.599 155.82 151.855 155.212L160.255 135.34C160.575 134.572 160.639 133.996 160.447 133.612C160.255 133.196 159.935 132.908 159.487 132.748C159.039 132.556 158.543 132.412 157.999 132.316C157.519 132.22 157.199 132.14 157.039 132.076C156.879 131.98 156.799 131.692 156.799 131.212C156.799 130.668 156.991 130.38 157.375 130.348C157.759 130.284 158.207 130.252 158.719 130.252C160.031 130.252 161.151 130.38 162.079 130.636C163.007 130.892 163.807 131.388 164.479 132.124C165.151 132.828 165.775 133.9 166.351 135.34L174.415 155.212C174.639 155.756 174.879 156.316 175.135 156.892C175.391 157.468 175.727 157.948 176.143 158.332C176.591 158.684 177.151 158.876 177.823 158.908C178.175 158.908 178.447 158.94 178.639 159.004C178.863 159.068 178.991 159.372 179.023 159.916C179.023 160.172 178.943 160.412 178.783 160.636C178.655 160.86 178.447 160.972 178.159 160.972C177.135 160.908 176.239 160.86 175.471 160.828C174.703 160.828 173.839 160.828 172.879 160.828C170.991 160.828 169.007 160.876 166.927 160.972C166.607 160.972 166.383 160.86 166.255 160.636C166.127 160.412 166.063 160.172 166.063 159.916C166.095 159.372 166.223 159.068 166.447 159.004C166.671 158.94 166.943 158.908 167.263 158.908C168.831 158.908 169.679 158.62 169.807 158.044C169.967 157.468 169.823 156.524 169.375 155.212L167.743 151.228H155.887C155.407 152.444 155.055 153.324 154.831 153.868C154.639 154.412 154.511 154.764 154.447 154.924C154.415 155.084 154.383 155.18 154.351 155.212C153.999 156.3 153.807 157.116 153.775 157.66C153.775 158.172 154.031 158.508 154.543 158.668C155.087 158.828 155.983 158.908 157.231 158.908C157.583 158.908 157.855 158.94 158.047 159.004C158.271 159.068 158.399 159.372 158.431 159.916C158.431 160.172 158.351 160.412 158.191 160.636C158.063 160.86 157.855 160.972 157.567 160.972C156.543 160.908 155.647 160.86 154.879 160.828C154.143 160.828 153.295 160.828 152.335 160.828C151.695 160.828 151.151 160.828 150.703 160.828C150.287 160.86 149.855 160.876 149.407 160.876C148.959 160.908 148.383 160.94 147.679 160.972ZM156.799 149.164H166.879L162.031 136.828H161.887L156.799 149.164ZM181.246 160.972C180.958 160.972 180.734 160.86 180.574 160.636C180.446 160.412 180.382 160.172 180.382 159.916C180.446 159.372 180.59 159.068 180.814 159.004C181.038 158.94 181.31 158.908 181.63 158.908C182.174 158.908 182.622 158.844 182.974 158.716C183.326 158.588 183.662 158.316 183.982 157.9C184.334 157.484 184.734 156.86 185.182 156.028L195.934 136.108C196.51 134.892 196.814 134.044 196.846 133.564C196.878 133.052 196.654 132.748 196.174 132.652C195.694 132.524 194.99 132.46 194.062 132.46H188.83C187.742 132.492 186.894 132.684 186.286 133.036C185.71 133.356 185.246 133.916 184.894 134.716C184.542 135.516 184.142 136.62 183.694 138.028C183.598 138.348 183.39 138.556 183.07 138.652C182.782 138.716 182.462 138.732 182.11 138.7C181.854 138.636 181.614 138.524 181.39 138.364C181.166 138.172 181.07 137.916 181.102 137.596L182.062 131.548C182.158 131.1 182.302 130.828 182.494 130.732C182.718 130.604 183.038 130.54 183.454 130.54H199.918C201.806 130.54 203.774 130.492 205.822 130.396C206.142 130.396 206.366 130.508 206.494 130.732C206.622 130.956 206.686 131.196 206.686 131.452C206.654 131.996 206.526 132.3 206.302 132.364C206.11 132.396 205.838 132.428 205.486 132.46C204.302 132.524 203.406 132.94 202.798 133.708C202.19 134.476 201.662 135.276 201.214 136.108L190.702 156.028C190.542 156.412 190.414 156.828 190.318 157.276C190.254 157.724 190.382 158.108 190.702 158.428C191.054 158.716 191.774 158.876 192.862 158.908H198.526C199.646 158.876 200.494 158.7 201.07 158.38C201.678 158.028 202.158 157.452 202.51 156.652C202.894 155.852 203.294 154.748 203.71 153.34C203.806 153.02 203.998 152.812 204.286 152.716C204.606 152.62 204.942 152.604 205.294 152.668C205.55 152.7 205.79 152.812 206.014 153.004C206.238 153.196 206.334 153.452 206.302 153.772L205.342 159.82C205.246 160.268 205.086 160.556 204.862 160.684C204.67 160.78 204.366 160.828 203.95 160.828H187.006C186.046 160.828 185.102 160.828 184.174 160.828C183.246 160.86 182.27 160.908 181.246 160.972Z" fill="white"/>
</svg>
