<svg width="532" height="110" viewBox="0 0 532 110" fill="none" xmlns="http://www.w3.org/2000/svg">
<path d="M86.2775 92.1938C86.2775 93.3288 85.3575 94.2498 84.2225 94.2498H63.6665V90.1378H84.2225C85.3575 90.1378 86.2775 91.0588 86.2775 92.1938Z" fill="#58595B"/>
<path d="M63.6676 88.0828V94.2498C61.3966 94.2498 59.5566 92.4088 59.5566 90.1378V88.0828H63.6676Z" fill="#58595B"/>
<path d="M59.5566 73.6938C61.8266 73.6938 63.6676 75.5348 63.6676 77.8048V79.8608H59.5566V73.6938Z" fill="#58595B"/>
<path d="M59.5568 73.6938V77.8048H47.2231C47.2231 75.5348 49.0636 73.6938 51.3341 73.6938H59.5568Z" fill="#58595B"/>
<path d="M51.334 90.1381V77.8048H47.2229V90.1381H51.334Z" fill="#58595B"/>
<path d="M51.3342 90.1378C51.3342 92.4088 49.4936 94.2498 47.2232 94.2498H18.4456C16.1751 94.2498 14.3345 92.4088 14.3345 90.1378H51.3342Z" fill="#58595B"/>
<path d="M18.4453 90.1382V69.5828H14.3342V90.1382H18.4453Z" fill="#58595B"/>
<path d="M16.39 32.5831C17.5253 32.5831 18.4456 33.5034 18.4456 34.6386V61.3607H14.3345V34.6386C14.3345 33.5034 15.2548 32.5831 16.39 32.5831Z" fill="#58595B"/>
<path d="M6.79736 17.8517C6.79736 16.7165 7.71766 15.7962 8.85286 15.7962H29.4083V19.9072H8.85286C7.71766 19.9072 6.79736 18.9869 6.79736 17.8517Z" fill="#58595B"/>
<path d="M29.4082 21.9628V15.7962C31.6787 15.7962 33.5192 17.6367 33.5192 19.9072V21.9628H29.4082Z" fill="#58595B"/>
<path d="M33.5192 36.3516C31.2488 36.3516 29.4082 34.511 29.4082 32.2406V30.185H33.5192V36.3516Z" fill="#58595B"/>
<path d="M33.519 36.3516V32.2405H45.8523C45.8523 34.511 44.0117 36.3516 41.7412 36.3516H33.519Z" fill="#58595B"/>
<path d="M41.7412 19.9073V32.2406H45.8523V19.9073H41.7412Z" fill="#58595B"/>
<path d="M41.7412 19.9073C41.7412 17.6368 43.5818 15.7962 45.8523 15.7962H74.6304C76.9004 15.7962 78.7414 17.6368 78.7414 19.9073H41.7412Z" fill="#58595B"/>
<path d="M74.6299 19.9072V40.4626H78.741V19.9072H74.6299Z" fill="#58595B"/>
<path d="M76.6859 77.4628C75.5509 77.4628 74.6299 76.5418 74.6299 75.4068V48.6849H78.7419V75.4068C78.7419 76.5418 77.8209 77.4628 76.6859 77.4628Z" fill="#58595B"/>
<path d="M53.3896 85.6848V81.5738H86.2778C86.2778 83.8438 84.4378 85.6848 82.1668 85.6848H53.3896Z" fill="#58595B"/>
<path d="M82.1665 61.0184V81.5738H86.2776V61.0184H82.1665Z" fill="#58595B"/>
<path d="M65.7227 46.6293C65.7227 44.3589 67.5637 42.5183 69.8337 42.5183H82.1667V46.6293H65.7227Z" fill="#58595B"/>
<path d="M65.7227 56.9071V46.6294H69.8337V56.9071H65.7227Z" fill="#58595B"/>
<path d="M69.8337 61.0182C67.5637 61.0182 65.7227 59.1776 65.7227 56.9071H71.8897V61.0182H69.8337Z" fill="#58595B"/>
<path d="M82.1665 46.6293V17.8517C82.1665 16.7165 83.0875 15.7962 84.2225 15.7962C85.3575 15.7962 86.2775 16.7165 86.2775 17.8517V42.5183C86.2775 44.7888 84.4375 46.6293 82.1665 46.6293Z" fill="#58595B"/>
<path d="M24.6118 85.6848C23.4765 85.6848 22.5562 84.7648 22.5562 83.6288C22.5562 82.4938 23.4765 81.5738 24.6118 81.5738H45.1672V85.6848H24.6118Z" fill="#58595B"/>
<path d="M82.1668 56.9071C84.4378 56.9071 86.2778 58.7477 86.2778 61.0182H80.1118V56.9071H82.1668Z" fill="#58595B"/>
<path d="M39.3433 24.0185V28.1296H6.45459C6.45459 25.8591 8.29519 24.0185 10.5657 24.0185H39.3433Z" fill="#58595B"/>
<path d="M10.5654 48.685L10.5654 28.1296H6.45434L6.45434 48.685H10.5654Z" fill="#58595B"/>
<path d="M27.0098 63.0737C27.0098 65.3442 25.1692 67.1848 22.8987 67.1848H10.5654V63.0737H27.0098Z" fill="#58595B"/>
<path d="M27.01 52.7961V63.0738H22.8989V52.7961H27.01Z" fill="#58595B"/>
<path d="M22.8989 48.685C25.1694 48.685 27.01 50.5255 27.01 52.796H20.8433V48.685H22.8989Z" fill="#58595B"/>
<path d="M10.5657 63.0737V91.8518C10.5657 92.9868 9.64539 93.9068 8.51019 93.9068C7.37489 93.9068 6.45459 92.9868 6.45459 91.8518V67.1848C6.45459 64.9143 8.29519 63.0737 10.5657 63.0737Z" fill="#58595B"/>
<path d="M68.1205 24.0184C69.2565 24.0184 70.1765 24.9387 70.1765 26.074C70.1765 27.2092 69.2565 28.1295 68.1205 28.1295H47.5654V24.0184H68.1205Z" fill="#58595B"/>
<path d="M10.5657 52.7961C8.29519 52.7961 6.45459 50.9555 6.45459 48.685H12.6213V52.7961H10.5657Z" fill="#58595B"/>
<path d="M91.3884 91.3888C91.3884 96.3588 87.3594 100.389 82.3884 100.389H1V19C1 14.0295 5.0296 10.0001 10 10H91.3884V91.3888Z" stroke="#58595B" stroke-width="2"/>
<path d="M36.3284 66.9258C36.0618 66.9258 35.8751 66.8328 35.7684 66.6458C35.6618 66.4591 35.6084 66.2591 35.6084 66.0458C35.6351 65.5925 35.7418 65.3391 35.9284 65.2858C36.1151 65.2325 36.3418 65.2058 36.6084 65.2058C37.4618 65.2058 38.0618 65.0591 38.4084 64.7658C38.7551 64.4458 38.9684 64.0591 39.0484 63.6058C39.1551 63.1258 39.2084 62.6325 39.2084 62.1258V46.2858C39.2084 45.7791 39.1551 45.2858 39.0484 44.8058C38.9684 44.3258 38.7551 43.9391 38.4084 43.6458C38.0618 43.3258 37.4618 43.1658 36.6084 43.1658C36.3418 43.1658 36.1151 43.1391 35.9284 43.0858C35.7418 43.0325 35.6351 42.7791 35.6084 42.3258C35.6084 42.1125 35.6618 41.9125 35.7684 41.7258C35.8751 41.5391 36.0618 41.4458 36.3284 41.4458C37.1818 41.4725 37.9818 41.4991 38.7284 41.5258C39.5018 41.5525 40.2884 41.5658 41.0884 41.5658H47.9684C50.1284 41.5925 51.8751 41.9258 53.2084 42.5658C54.5684 43.2058 55.5551 44.0191 56.1684 45.0058C56.7818 45.9925 57.0884 47.0191 57.0884 48.0858C57.0884 49.4991 56.5151 50.8325 55.3684 52.0858C54.2484 53.3391 52.6618 54.2325 50.6084 54.7658C51.6218 56.3658 52.6484 57.9791 53.6884 59.6058C54.7284 61.2058 55.9284 62.7125 57.2884 64.1258C57.6618 64.4191 58.0214 64.6591 58.3684 64.8458C58.7414 65.0325 59.1814 65.1525 59.6884 65.2058C59.9014 65.2325 60.1154 65.2725 60.3284 65.3258C60.5414 65.3525 60.6614 65.5925 60.6884 66.0458C60.6884 66.2591 60.6354 66.4591 60.5284 66.6458C60.4214 66.8328 60.2354 66.9258 59.9684 66.9258C59.4084 66.8988 58.9554 66.8728 58.6084 66.8458C58.2884 66.8458 57.9684 66.8328 57.6484 66.8058C57.3284 66.8058 56.9018 66.8058 56.3684 66.8058C55.2751 66.5925 54.3418 66.2058 53.5684 65.6458C52.8218 65.0858 52.0884 64.3125 51.3684 63.3258C50.6218 62.3125 49.9284 61.2858 49.2884 60.2458C48.6484 59.2058 48.0218 58.1925 47.4084 57.2058C47.0618 56.6458 46.7018 56.2458 46.3284 56.0058C45.9818 55.7391 45.3151 55.6058 44.3284 55.6058H43.1684V62.1258C43.1951 62.6325 43.2484 63.1258 43.3284 63.6058C43.4084 64.0591 43.6218 64.4458 43.9684 64.7658C44.3418 65.0591 44.9418 65.2058 45.7684 65.2058C46.0351 65.2058 46.2618 65.2325 46.4484 65.2858C46.6351 65.3391 46.7418 65.5925 46.7684 66.0458C46.7684 66.2591 46.7151 66.4591 46.6084 66.6458C46.5018 66.8328 46.3151 66.9258 46.0484 66.9258C44.3418 66.8458 42.6751 66.8058 41.0484 66.8058C40.2484 66.8058 39.4751 66.8058 38.7284 66.8058C37.9818 66.8328 37.1818 66.8728 36.3284 66.9258ZM43.1684 54.0458H46.6884C48.0484 54.0458 49.1151 53.8591 49.8884 53.4858C50.6884 53.1125 51.2884 52.6325 51.6884 52.0458C52.0884 51.4591 52.3418 50.8458 52.4484 50.2058C52.5818 49.5658 52.6484 48.9791 52.6484 48.4458C52.6484 47.5658 52.4484 46.7125 52.0484 45.8858C51.6751 45.0591 50.9951 44.3791 50.0084 43.8458C49.0484 43.3125 47.7018 43.0458 45.9684 43.0458C44.8218 43.0458 44.0618 43.2725 43.6884 43.7258C43.3418 44.1525 43.1684 45.0325 43.1684 46.3658V54.0458Z" fill="#58595B"/>
<path d="M121.231 87.288C120.591 87.288 120.143 87.064 119.887 86.616C119.631 86.168 119.503 85.688 119.503 85.176C119.567 84.088 119.823 83.48 120.271 83.352C120.719 83.224 121.263 83.16 121.903 83.16C123.951 83.16 125.391 82.808 126.223 82.104C127.055 81.336 127.567 80.408 127.759 79.32C128.015 78.168 128.143 76.984 128.143 75.768V37.752C128.143 36.536 128.015 35.352 127.759 34.2C127.567 33.048 127.055 32.12 126.223 31.416C125.391 30.648 123.951 30.264 121.903 30.264C121.263 30.264 120.719 30.2 120.271 30.072C119.823 29.944 119.567 29.336 119.503 28.248C119.503 27.736 119.631 27.256 119.887 26.808C120.143 26.36 120.591 26.136 121.231 26.136C123.279 26.2 125.199 26.264 126.991 26.328C128.847 26.392 130.735 26.424 132.655 26.424H149.167C154.351 26.488 158.543 27.288 161.743 28.824C165.007 30.36 167.375 32.312 168.847 34.68C170.319 37.048 171.055 39.512 171.055 42.072C171.055 45.464 169.679 48.664 166.927 51.672C164.239 54.68 160.431 56.824 155.503 58.104C157.935 61.944 160.399 65.816 162.895 69.72C165.391 73.56 168.271 77.176 171.535 80.568C172.431 81.272 173.295 81.848 174.127 82.296C175.023 82.744 176.079 83.032 177.295 83.16C177.807 83.224 178.319 83.32 178.831 83.448C179.343 83.512 179.631 84.088 179.695 85.176C179.695 85.688 179.567 86.168 179.311 86.616C179.055 87.064 178.607 87.288 177.967 87.288C176.623 87.224 175.535 87.16 174.703 87.096C173.935 87.096 173.167 87.064 172.399 87C171.631 87 170.607 87 169.327 87C166.703 86.488 164.463 85.56 162.607 84.216C160.815 82.872 159.055 81.016 157.327 78.648C155.535 76.216 153.871 73.752 152.335 71.256C150.799 68.76 149.295 66.328 147.823 63.96C146.991 62.616 146.127 61.656 145.231 61.08C144.399 60.44 142.799 60.12 140.431 60.12H137.647V75.768C137.711 76.984 137.839 78.168 138.031 79.32C138.223 80.408 138.735 81.336 139.567 82.104C140.463 82.808 141.903 83.16 143.887 83.16C144.527 83.16 145.071 83.224 145.519 83.352C145.967 83.48 146.223 84.088 146.287 85.176C146.287 85.688 146.159 86.168 145.903 86.616C145.647 87.064 145.199 87.288 144.559 87.288C140.463 87.096 136.463 87 132.559 87C130.639 87 128.783 87 126.991 87C125.199 87.064 123.279 87.16 121.231 87.288ZM137.647 56.376H146.095C149.359 56.376 151.919 55.928 153.775 55.032C155.695 54.136 157.135 52.984 158.095 51.576C159.055 50.168 159.663 48.696 159.919 47.16C160.239 45.624 160.399 44.216 160.399 42.936C160.399 40.824 159.919 38.776 158.959 36.792C158.063 34.808 156.431 33.176 154.063 31.896C151.759 30.616 148.527 29.976 144.367 29.976C141.615 29.976 139.791 30.52 138.895 31.608C138.063 32.632 137.647 34.744 137.647 37.944V56.376ZM180.357 87.288C179.717 87.288 179.269 87.064 179.013 86.616C178.757 86.168 178.629 85.688 178.629 85.176C178.693 84.088 178.949 83.48 179.397 83.352C179.845 83.224 180.389 83.16 181.029 83.16C182.757 83.16 184.069 82.808 184.965 82.104C185.861 81.4 186.565 80.472 187.077 79.32C187.653 78.168 188.197 76.984 188.709 75.768L205.509 36.024C206.149 34.488 206.277 33.336 205.893 32.568C205.509 31.736 204.869 31.16 203.973 30.84C203.077 30.456 202.085 30.168 200.997 29.976C200.037 29.784 199.397 29.624 199.077 29.496C198.757 29.304 198.597 28.728 198.597 27.768C198.597 26.68 198.981 26.104 199.749 26.04C200.517 25.912 201.413 25.848 202.437 25.848C205.061 25.848 207.301 26.104 209.157 26.616C211.013 27.128 212.613 28.12 213.957 29.592C215.301 31 216.549 33.144 217.701 36.024L233.829 75.768C234.277 76.856 234.757 77.976 235.269 79.128C235.781 80.28 236.453 81.24 237.285 82.008C238.181 82.712 239.301 83.096 240.645 83.16C241.349 83.16 241.893 83.224 242.277 83.352C242.725 83.48 242.981 84.088 243.045 85.176C243.045 85.688 242.885 86.168 242.565 86.616C242.309 87.064 241.893 87.288 241.317 87.288C239.269 87.16 237.477 87.064 235.941 87C234.405 87 232.677 87 230.757 87C226.981 87 223.013 87.096 218.853 87.288C218.213 87.288 217.765 87.064 217.509 86.616C217.253 86.168 217.125 85.688 217.125 85.176C217.189 84.088 217.445 83.48 217.893 83.352C218.341 83.224 218.885 83.16 219.525 83.16C222.661 83.16 224.357 82.584 224.613 81.432C224.933 80.28 224.645 78.392 223.749 75.768L220.485 67.8H196.773C195.813 70.232 195.109 71.992 194.661 73.08C194.277 74.168 194.021 74.872 193.893 75.192C193.829 75.512 193.765 75.704 193.701 75.768C192.997 77.944 192.613 79.576 192.549 80.664C192.549 81.688 193.061 82.36 194.085 82.68C195.173 83 196.965 83.16 199.461 83.16C200.165 83.16 200.709 83.224 201.093 83.352C201.541 83.48 201.797 84.088 201.861 85.176C201.861 85.688 201.701 86.168 201.381 86.616C201.125 87.064 200.709 87.288 200.133 87.288C198.085 87.16 196.293 87.064 194.757 87C193.285 87 191.589 87 189.669 87C188.389 87 187.301 87 186.405 87C185.573 87.064 184.709 87.096 183.813 87.096C182.917 87.16 181.765 87.224 180.357 87.288ZM198.597 63.672H218.757L209.061 39H208.773L198.597 63.672ZM279.744 87.48C279.36 87.48 278.976 87.384 278.592 87.192C278.208 87.064 277.92 86.84 277.728 86.52L256.128 37.656H255.84L256.032 75.768C256.096 76.984 256.192 78.168 256.32 79.32C256.512 80.408 257.024 81.336 257.856 82.104C258.688 82.808 260.096 83.16 262.08 83.16C262.784 83.16 263.36 83.224 263.808 83.352C264.256 83.48 264.512 84.088 264.576 85.176C264.576 85.688 264.416 86.168 264.096 86.616C263.84 87.064 263.424 87.288 262.848 87.288C261.504 87.224 260.416 87.16 259.584 87.096C258.752 87.096 257.952 87.064 257.184 87C256.416 87 255.392 87 254.112 87C252.192 87 250.624 87 249.408 87C248.256 87.064 246.656 87.16 244.608 87.288C243.968 87.288 243.52 87.064 243.264 86.616C243.008 86.168 242.88 85.688 242.88 85.176C242.944 84.088 243.2 83.48 243.648 83.352C244.096 83.224 244.64 83.16 245.28 83.16C247.328 83.16 248.736 82.808 249.504 82.104C250.336 81.336 250.848 80.408 251.04 79.32C251.232 78.168 251.328 76.984 251.328 75.768L251.52 37.656C251.52 35.608 251.296 34.104 250.848 33.144C250.4 32.12 249.696 31.416 248.736 31.032C247.776 30.584 246.56 30.232 245.088 29.976C244.192 29.784 243.552 29.624 243.168 29.496C242.848 29.368 242.688 28.792 242.688 27.768C242.688 26.68 243.072 26.104 243.84 26.04C244.608 25.912 245.504 25.848 246.528 25.848C249.664 25.848 252.416 26.104 254.784 26.616C257.216 27.128 259.328 28.12 261.12 29.592C262.912 31 264.384 33.144 265.536 36.024L282.048 73.08H282.336L301.248 26.424H306.72C308.64 26.424 310.496 26.392 312.288 26.328C314.144 26.264 316.096 26.2 318.144 26.136C318.784 26.136 319.232 26.36 319.488 26.808C319.744 27.256 319.872 27.736 319.872 28.248C319.808 29.336 319.552 29.944 319.104 30.072C318.656 30.2 318.112 30.264 317.472 30.264C315.488 30.264 314.048 30.648 313.152 31.416C312.32 32.12 311.808 33.048 311.616 34.2C311.424 35.288 311.296 36.44 311.232 37.656V75.768C311.296 76.984 311.424 78.168 311.616 79.32C311.808 80.408 312.32 81.336 313.152 82.104C314.048 82.808 315.488 83.16 317.472 83.16C318.112 83.16 318.656 83.224 319.104 83.352C319.552 83.48 319.808 84.088 319.872 85.176C319.872 85.688 319.744 86.168 319.488 86.616C319.232 87.064 318.784 87.288 318.144 87.288C316.096 87.16 314.144 87.064 312.288 87C310.432 87 308.544 87 306.624 87C302.912 87 298.976 87.096 294.816 87.288C294.176 87.288 293.728 87.064 293.472 86.616C293.216 86.168 293.088 85.688 293.088 85.176C293.152 84.088 293.408 83.48 293.856 83.352C294.304 83.224 294.848 83.16 295.488 83.16C297.536 83.16 298.976 82.808 299.808 82.104C300.64 81.336 301.152 80.408 301.344 79.32C301.6 78.168 301.728 76.984 301.728 75.768V37.656H301.44L281.664 86.52C281.536 86.84 281.28 87.064 280.896 87.192C280.512 87.384 280.128 87.48 279.744 87.48ZM365.057 87.48C364.673 87.48 364.289 87.384 363.905 87.192C363.521 87.064 363.233 86.84 363.041 86.52L341.441 37.656H341.153L341.345 75.768C341.409 76.984 341.505 78.168 341.633 79.32C341.825 80.408 342.337 81.336 343.169 82.104C344.001 82.808 345.409 83.16 347.393 83.16C348.097 83.16 348.673 83.224 349.121 83.352C349.569 83.48 349.825 84.088 349.889 85.176C349.889 85.688 349.729 86.168 349.409 86.616C349.153 87.064 348.737 87.288 348.161 87.288C346.817 87.224 345.729 87.16 344.897 87.096C344.065 87.096 343.265 87.064 342.497 87C341.729 87 340.705 87 339.425 87C337.505 87 335.937 87 334.721 87C333.569 87.064 331.969 87.16 329.921 87.288C329.281 87.288 328.833 87.064 328.577 86.616C328.321 86.168 328.193 85.688 328.193 85.176C328.257 84.088 328.513 83.48 328.961 83.352C329.409 83.224 329.953 83.16 330.593 83.16C332.641 83.16 334.049 82.808 334.817 82.104C335.649 81.336 336.161 80.408 336.353 79.32C336.545 78.168 336.641 76.984 336.641 75.768L336.833 37.656C336.833 35.608 336.609 34.104 336.161 33.144C335.713 32.12 335.009 31.416 334.049 31.032C333.089 30.584 331.873 30.232 330.401 29.976C329.505 29.784 328.865 29.624 328.481 29.496C328.161 29.368 328.001 28.792 328.001 27.768C328.001 26.68 328.385 26.104 329.153 26.04C329.921 25.912 330.817 25.848 331.841 25.848C334.977 25.848 337.729 26.104 340.097 26.616C342.529 27.128 344.641 28.12 346.433 29.592C348.225 31 349.697 33.144 350.849 36.024L367.361 73.08H367.649L386.561 26.424H392.033C393.953 26.424 395.809 26.392 397.601 26.328C399.457 26.264 401.409 26.2 403.457 26.136C404.097 26.136 404.545 26.36 404.801 26.808C405.057 27.256 405.185 27.736 405.185 28.248C405.121 29.336 404.865 29.944 404.417 30.072C403.969 30.2 403.425 30.264 402.785 30.264C400.801 30.264 399.361 30.648 398.465 31.416C397.633 32.12 397.121 33.048 396.929 34.2C396.737 35.288 396.609 36.44 396.545 37.656V75.768C396.609 76.984 396.737 78.168 396.929 79.32C397.121 80.408 397.633 81.336 398.465 82.104C399.361 82.808 400.801 83.16 402.785 83.16C403.425 83.16 403.969 83.224 404.417 83.352C404.865 83.48 405.121 84.088 405.185 85.176C405.185 85.688 405.057 86.168 404.801 86.616C404.545 87.064 404.097 87.288 403.457 87.288C401.409 87.16 399.457 87.064 397.601 87C395.745 87 393.857 87 391.937 87C388.225 87 384.289 87.096 380.129 87.288C379.489 87.288 379.041 87.064 378.785 86.616C378.529 86.168 378.401 85.688 378.401 85.176C378.465 84.088 378.721 83.48 379.169 83.352C379.617 83.224 380.161 83.16 380.801 83.16C382.849 83.16 384.289 82.808 385.121 82.104C385.953 81.336 386.465 80.408 386.657 79.32C386.913 78.168 387.041 76.984 387.041 75.768V37.656H386.753L366.977 86.52C366.849 86.84 366.593 87.064 366.209 87.192C365.825 87.384 365.441 87.48 365.057 87.48ZM409.857 87.288C409.217 87.288 408.769 87.064 408.513 86.616C408.257 86.168 408.129 85.688 408.129 85.176C408.193 84.088 408.449 83.48 408.897 83.352C409.345 83.224 409.889 83.16 410.529 83.16C412.257 83.16 413.569 82.808 414.465 82.104C415.361 81.4 416.065 80.472 416.577 79.32C417.153 78.168 417.697 76.984 418.209 75.768L435.009 36.024C435.649 34.488 435.777 33.336 435.393 32.568C435.009 31.736 434.369 31.16 433.473 30.84C432.577 30.456 431.585 30.168 430.497 29.976C429.537 29.784 428.897 29.624 428.577 29.496C428.257 29.304 428.097 28.728 428.097 27.768C428.097 26.68 428.481 26.104 429.249 26.04C430.017 25.912 430.913 25.848 431.937 25.848C434.561 25.848 436.801 26.104 438.657 26.616C440.513 27.128 442.113 28.12 443.457 29.592C444.801 31 446.049 33.144 447.201 36.024L463.329 75.768C463.777 76.856 464.257 77.976 464.769 79.128C465.281 80.28 465.953 81.24 466.785 82.008C467.681 82.712 468.801 83.096 470.145 83.16C470.849 83.16 471.393 83.224 471.777 83.352C472.225 83.48 472.481 84.088 472.545 85.176C472.545 85.688 472.385 86.168 472.065 86.616C471.809 87.064 471.393 87.288 470.817 87.288C468.769 87.16 466.977 87.064 465.441 87C463.905 87 462.177 87 460.257 87C456.481 87 452.513 87.096 448.353 87.288C447.713 87.288 447.265 87.064 447.009 86.616C446.753 86.168 446.625 85.688 446.625 85.176C446.689 84.088 446.945 83.48 447.393 83.352C447.841 83.224 448.385 83.16 449.025 83.16C452.161 83.16 453.857 82.584 454.113 81.432C454.433 80.28 454.145 78.392 453.249 75.768L449.985 67.8H426.273C425.313 70.232 424.609 71.992 424.161 73.08C423.777 74.168 423.521 74.872 423.393 75.192C423.329 75.512 423.265 75.704 423.201 75.768C422.497 77.944 422.113 79.576 422.049 80.664C422.049 81.688 422.561 82.36 423.585 82.68C424.673 83 426.465 83.16 428.961 83.16C429.665 83.16 430.209 83.224 430.593 83.352C431.041 83.48 431.297 84.088 431.361 85.176C431.361 85.688 431.201 86.168 430.881 86.616C430.625 87.064 430.209 87.288 429.633 87.288C427.585 87.16 425.793 87.064 424.257 87C422.785 87 421.089 87 419.169 87C417.889 87 416.801 87 415.905 87C415.073 87.064 414.209 87.096 413.313 87.096C412.417 87.16 411.265 87.224 409.857 87.288ZM428.097 63.672H448.257L438.561 39H438.273L428.097 63.672ZM476.992 87.288C476.416 87.288 475.968 87.064 475.648 86.616C475.392 86.168 475.264 85.688 475.264 85.176C475.392 84.088 475.68 83.48 476.128 83.352C476.576 83.224 477.12 83.16 477.76 83.16C478.848 83.16 479.744 83.032 480.448 82.776C481.152 82.52 481.824 81.976 482.464 81.144C483.168 80.312 483.968 79.064 484.864 77.4L506.368 37.56C507.52 35.128 508.128 33.432 508.192 32.472C508.256 31.448 507.808 30.84 506.848 30.648C505.888 30.392 504.48 30.264 502.624 30.264H492.16C489.984 30.328 488.288 30.712 487.072 31.416C485.92 32.056 484.992 33.176 484.288 34.776C483.584 36.376 482.784 38.584 481.888 41.4C481.696 42.04 481.28 42.456 480.64 42.648C480.064 42.776 479.424 42.808 478.72 42.744C478.208 42.616 477.728 42.392 477.28 42.072C476.832 41.688 476.64 41.176 476.704 40.536L478.624 28.44C478.816 27.544 479.104 27 479.488 26.808C479.936 26.552 480.576 26.424 481.408 26.424H514.336C518.112 26.424 522.048 26.328 526.144 26.136C526.784 26.136 527.232 26.36 527.488 26.808C527.744 27.256 527.872 27.736 527.872 28.248C527.808 29.336 527.552 29.944 527.104 30.072C526.72 30.136 526.176 30.2 525.472 30.264C523.104 30.392 521.312 31.224 520.096 32.76C518.88 34.296 517.824 35.896 516.928 37.56L495.904 77.4C495.584 78.168 495.328 79 495.136 79.896C495.008 80.792 495.264 81.56 495.904 82.2C496.608 82.776 498.048 83.096 500.224 83.16H511.552C513.792 83.096 515.488 82.744 516.64 82.104C517.856 81.4 518.816 80.248 519.52 78.648C520.288 77.048 521.088 74.84 521.92 72.024C522.112 71.384 522.496 70.968 523.072 70.776C523.712 70.584 524.384 70.552 525.088 70.68C525.6 70.744 526.08 70.968 526.528 71.352C526.976 71.736 527.168 72.248 527.104 72.888L525.184 84.984C524.992 85.88 524.672 86.456 524.224 86.712C523.84 86.904 523.232 87 522.4 87H488.512C486.592 87 484.704 87 482.848 87C480.992 87.064 479.04 87.16 476.992 87.288Z" fill="#58595B"/>
</svg>
