<svg width="532" height="110" viewBox="0 0 532 110" fill="none" xmlns="http://www.w3.org/2000/svg">
<path d="M121.037 87.288C120.397 87.288 119.949 87.064 119.693 86.616C119.437 86.168 119.309 85.688 119.309 85.176C119.373 84.088 119.629 83.48 120.077 83.352C120.525 83.224 121.069 83.16 121.709 83.16C123.757 83.16 125.197 82.808 126.029 82.104C126.861 81.336 127.373 80.408 127.565 79.32C127.821 78.168 127.949 76.984 127.949 75.768V37.752C127.949 36.536 127.821 35.352 127.565 34.2C127.373 33.048 126.861 32.12 126.029 31.416C125.197 30.648 123.757 30.264 121.709 30.264C121.069 30.264 120.525 30.2 120.077 30.072C119.629 29.944 119.373 29.336 119.309 28.248C119.309 27.736 119.437 27.256 119.693 26.808C119.949 26.36 120.397 26.136 121.037 26.136C123.085 26.2 125.005 26.264 126.797 26.328C128.653 26.392 130.541 26.424 132.461 26.424H148.973C154.157 26.488 158.349 27.288 161.549 28.824C164.813 30.36 167.181 32.312 168.653 34.68C170.125 37.048 170.861 39.512 170.861 42.072C170.861 45.464 169.485 48.664 166.733 51.672C164.045 54.68 160.237 56.824 155.309 58.104C157.741 61.944 160.205 65.816 162.701 69.72C165.197 73.56 168.077 77.176 171.341 80.568C172.237 81.272 173.101 81.848 173.933 82.296C174.829 82.744 175.885 83.032 177.101 83.16C177.613 83.224 178.125 83.32 178.637 83.448C179.149 83.512 179.437 84.088 179.501 85.176C179.501 85.688 179.373 86.168 179.117 86.616C178.861 87.064 178.413 87.288 177.773 87.288C176.429 87.224 175.341 87.16 174.509 87.096C173.741 87.096 172.973 87.064 172.205 87C171.437 87 170.413 87 169.133 87C166.509 86.488 164.269 85.56 162.413 84.216C160.621 82.872 158.861 81.016 157.133 78.648C155.341 76.216 153.677 73.752 152.141 71.256C150.605 68.76 149.101 66.328 147.629 63.96C146.797 62.616 145.933 61.656 145.037 61.08C144.205 60.44 142.605 60.12 140.237 60.12H137.453V75.768C137.517 76.984 137.645 78.168 137.837 79.32C138.029 80.408 138.541 81.336 139.373 82.104C140.269 82.808 141.709 83.16 143.693 83.16C144.333 83.16 144.877 83.224 145.325 83.352C145.773 83.48 146.029 84.088 146.093 85.176C146.093 85.688 145.965 86.168 145.709 86.616C145.453 87.064 145.005 87.288 144.365 87.288C140.269 87.096 136.269 87 132.365 87C130.445 87 128.589 87 126.797 87C125.005 87.064 123.085 87.16 121.037 87.288ZM137.453 56.376H145.901C149.165 56.376 151.725 55.928 153.581 55.032C155.501 54.136 156.941 52.984 157.901 51.576C158.861 50.168 159.469 48.696 159.725 47.16C160.045 45.624 160.205 44.216 160.205 42.936C160.205 40.824 159.725 38.776 158.765 36.792C157.869 34.808 156.237 33.176 153.869 31.896C151.565 30.616 148.333 29.976 144.173 29.976C141.421 29.976 139.597 30.52 138.701 31.608C137.869 32.632 137.453 34.744 137.453 37.944V56.376ZM180.164 87.288C179.524 87.288 179.076 87.064 178.82 86.616C178.564 86.168 178.436 85.688 178.436 85.176C178.5 84.088 178.756 83.48 179.204 83.352C179.652 83.224 180.196 83.16 180.836 83.16C182.564 83.16 183.876 82.808 184.772 82.104C185.668 81.4 186.372 80.472 186.884 79.32C187.46 78.168 188.004 76.984 188.516 75.768L205.316 36.024C205.956 34.488 206.084 33.336 205.7 32.568C205.316 31.736 204.676 31.16 203.78 30.84C202.884 30.456 201.892 30.168 200.804 29.976C199.844 29.784 199.204 29.624 198.884 29.496C198.564 29.304 198.404 28.728 198.404 27.768C198.404 26.68 198.788 26.104 199.556 26.04C200.324 25.912 201.22 25.848 202.244 25.848C204.868 25.848 207.108 26.104 208.964 26.616C210.82 27.128 212.42 28.12 213.764 29.592C215.108 31 216.356 33.144 217.508 36.024L233.636 75.768C234.084 76.856 234.564 77.976 235.076 79.128C235.588 80.28 236.26 81.24 237.092 82.008C237.988 82.712 239.108 83.096 240.452 83.16C241.156 83.16 241.7 83.224 242.084 83.352C242.532 83.48 242.788 84.088 242.852 85.176C242.852 85.688 242.692 86.168 242.372 86.616C242.116 87.064 241.7 87.288 241.124 87.288C239.076 87.16 237.284 87.064 235.748 87C234.212 87 232.484 87 230.564 87C226.788 87 222.82 87.096 218.66 87.288C218.02 87.288 217.572 87.064 217.316 86.616C217.06 86.168 216.932 85.688 216.932 85.176C216.996 84.088 217.252 83.48 217.7 83.352C218.148 83.224 218.692 83.16 219.332 83.16C222.468 83.16 224.164 82.584 224.42 81.432C224.74 80.28 224.452 78.392 223.556 75.768L220.292 67.8H196.58C195.62 70.232 194.916 71.992 194.468 73.08C194.084 74.168 193.828 74.872 193.7 75.192C193.636 75.512 193.572 75.704 193.508 75.768C192.804 77.944 192.42 79.576 192.356 80.664C192.356 81.688 192.868 82.36 193.892 82.68C194.98 83 196.772 83.16 199.268 83.16C199.972 83.16 200.516 83.224 200.9 83.352C201.348 83.48 201.604 84.088 201.668 85.176C201.668 85.688 201.508 86.168 201.188 86.616C200.932 87.064 200.516 87.288 199.94 87.288C197.892 87.16 196.1 87.064 194.564 87C193.092 87 191.396 87 189.476 87C188.196 87 187.108 87 186.212 87C185.38 87.064 184.516 87.096 183.62 87.096C182.724 87.16 181.572 87.224 180.164 87.288ZM198.404 63.672H218.564L208.868 39H208.58L198.404 63.672ZM279.551 87.48C279.167 87.48 278.783 87.384 278.399 87.192C278.015 87.064 277.727 86.84 277.535 86.52L255.935 37.656H255.647L255.839 75.768C255.903 76.984 255.999 78.168 256.127 79.32C256.319 80.408 256.831 81.336 257.663 82.104C258.495 82.808 259.903 83.16 261.887 83.16C262.591 83.16 263.167 83.224 263.615 83.352C264.063 83.48 264.319 84.088 264.383 85.176C264.383 85.688 264.223 86.168 263.903 86.616C263.647 87.064 263.231 87.288 262.655 87.288C261.311 87.224 260.223 87.16 259.391 87.096C258.559 87.096 257.759 87.064 256.991 87C256.223 87 255.199 87 253.919 87C251.999 87 250.431 87 249.215 87C248.063 87.064 246.463 87.16 244.415 87.288C243.775 87.288 243.327 87.064 243.071 86.616C242.815 86.168 242.687 85.688 242.687 85.176C242.751 84.088 243.007 83.48 243.455 83.352C243.903 83.224 244.447 83.16 245.087 83.16C247.135 83.16 248.543 82.808 249.311 82.104C250.143 81.336 250.655 80.408 250.847 79.32C251.039 78.168 251.135 76.984 251.135 75.768L251.327 37.656C251.327 35.608 251.103 34.104 250.655 33.144C250.207 32.12 249.503 31.416 248.543 31.032C247.583 30.584 246.367 30.232 244.895 29.976C243.999 29.784 243.359 29.624 242.975 29.496C242.655 29.368 242.495 28.792 242.495 27.768C242.495 26.68 242.879 26.104 243.647 26.04C244.415 25.912 245.311 25.848 246.335 25.848C249.471 25.848 252.223 26.104 254.591 26.616C257.023 27.128 259.135 28.12 260.927 29.592C262.719 31 264.191 33.144 265.343 36.024L281.855 73.08H282.143L301.055 26.424H306.527C308.447 26.424 310.303 26.392 312.095 26.328C313.951 26.264 315.903 26.2 317.951 26.136C318.591 26.136 319.039 26.36 319.295 26.808C319.551 27.256 319.679 27.736 319.679 28.248C319.615 29.336 319.359 29.944 318.911 30.072C318.463 30.2 317.919 30.264 317.279 30.264C315.295 30.264 313.855 30.648 312.959 31.416C312.127 32.12 311.615 33.048 311.423 34.2C311.231 35.288 311.103 36.44 311.039 37.656V75.768C311.103 76.984 311.231 78.168 311.423 79.32C311.615 80.408 312.127 81.336 312.959 82.104C313.855 82.808 315.295 83.16 317.279 83.16C317.919 83.16 318.463 83.224 318.911 83.352C319.359 83.48 319.615 84.088 319.679 85.176C319.679 85.688 319.551 86.168 319.295 86.616C319.039 87.064 318.591 87.288 317.951 87.288C315.903 87.16 313.951 87.064 312.095 87C310.239 87 308.351 87 306.431 87C302.719 87 298.783 87.096 294.623 87.288C293.983 87.288 293.535 87.064 293.279 86.616C293.023 86.168 292.895 85.688 292.895 85.176C292.959 84.088 293.215 83.48 293.663 83.352C294.111 83.224 294.655 83.16 295.295 83.16C297.343 83.16 298.783 82.808 299.615 82.104C300.447 81.336 300.959 80.408 301.151 79.32C301.407 78.168 301.535 76.984 301.535 75.768V37.656H301.247L281.471 86.52C281.343 86.84 281.087 87.064 280.703 87.192C280.319 87.384 279.935 87.48 279.551 87.48ZM364.863 87.48C364.479 87.48 364.095 87.384 363.711 87.192C363.327 87.064 363.039 86.84 362.847 86.52L341.247 37.656H340.959L341.151 75.768C341.215 76.984 341.311 78.168 341.439 79.32C341.631 80.408 342.143 81.336 342.975 82.104C343.807 82.808 345.215 83.16 347.199 83.16C347.903 83.16 348.479 83.224 348.927 83.352C349.375 83.48 349.631 84.088 349.695 85.176C349.695 85.688 349.535 86.168 349.215 86.616C348.959 87.064 348.543 87.288 347.967 87.288C346.623 87.224 345.535 87.16 344.703 87.096C343.871 87.096 343.071 87.064 342.303 87C341.535 87 340.511 87 339.231 87C337.311 87 335.743 87 334.527 87C333.375 87.064 331.775 87.16 329.727 87.288C329.087 87.288 328.639 87.064 328.383 86.616C328.127 86.168 327.999 85.688 327.999 85.176C328.063 84.088 328.319 83.48 328.767 83.352C329.215 83.224 329.759 83.16 330.399 83.16C332.447 83.16 333.855 82.808 334.623 82.104C335.455 81.336 335.967 80.408 336.159 79.32C336.351 78.168 336.447 76.984 336.447 75.768L336.639 37.656C336.639 35.608 336.415 34.104 335.967 33.144C335.519 32.12 334.815 31.416 333.855 31.032C332.895 30.584 331.679 30.232 330.207 29.976C329.311 29.784 328.671 29.624 328.287 29.496C327.967 29.368 327.807 28.792 327.807 27.768C327.807 26.68 328.191 26.104 328.959 26.04C329.727 25.912 330.623 25.848 331.647 25.848C334.783 25.848 337.535 26.104 339.903 26.616C342.335 27.128 344.447 28.12 346.239 29.592C348.031 31 349.503 33.144 350.655 36.024L367.167 73.08H367.455L386.367 26.424H391.839C393.759 26.424 395.615 26.392 397.407 26.328C399.263 26.264 401.215 26.2 403.263 26.136C403.903 26.136 404.351 26.36 404.607 26.808C404.863 27.256 404.991 27.736 404.991 28.248C404.927 29.336 404.671 29.944 404.223 30.072C403.775 30.2 403.231 30.264 402.591 30.264C400.607 30.264 399.167 30.648 398.271 31.416C397.439 32.12 396.927 33.048 396.735 34.2C396.543 35.288 396.415 36.44 396.351 37.656V75.768C396.415 76.984 396.543 78.168 396.735 79.32C396.927 80.408 397.439 81.336 398.271 82.104C399.167 82.808 400.607 83.16 402.591 83.16C403.231 83.16 403.775 83.224 404.223 83.352C404.671 83.48 404.927 84.088 404.991 85.176C404.991 85.688 404.863 86.168 404.607 86.616C404.351 87.064 403.903 87.288 403.263 87.288C401.215 87.16 399.263 87.064 397.407 87C395.551 87 393.663 87 391.743 87C388.031 87 384.095 87.096 379.935 87.288C379.295 87.288 378.847 87.064 378.591 86.616C378.335 86.168 378.207 85.688 378.207 85.176C378.271 84.088 378.527 83.48 378.975 83.352C379.423 83.224 379.967 83.16 380.607 83.16C382.655 83.16 384.095 82.808 384.927 82.104C385.759 81.336 386.271 80.408 386.463 79.32C386.719 78.168 386.847 76.984 386.847 75.768V37.656H386.559L366.783 86.52C366.655 86.84 366.399 87.064 366.015 87.192C365.631 87.384 365.247 87.48 364.863 87.48ZM409.664 87.288C409.024 87.288 408.576 87.064 408.32 86.616C408.064 86.168 407.936 85.688 407.936 85.176C408 84.088 408.256 83.48 408.704 83.352C409.152 83.224 409.696 83.16 410.336 83.16C412.064 83.16 413.376 82.808 414.272 82.104C415.168 81.4 415.872 80.472 416.384 79.32C416.96 78.168 417.504 76.984 418.016 75.768L434.816 36.024C435.456 34.488 435.584 33.336 435.2 32.568C434.816 31.736 434.176 31.16 433.28 30.84C432.384 30.456 431.392 30.168 430.304 29.976C429.344 29.784 428.704 29.624 428.384 29.496C428.064 29.304 427.904 28.728 427.904 27.768C427.904 26.68 428.288 26.104 429.056 26.04C429.824 25.912 430.72 25.848 431.744 25.848C434.368 25.848 436.608 26.104 438.464 26.616C440.32 27.128 441.92 28.12 443.264 29.592C444.608 31 445.856 33.144 447.008 36.024L463.136 75.768C463.584 76.856 464.064 77.976 464.576 79.128C465.088 80.28 465.76 81.24 466.592 82.008C467.488 82.712 468.608 83.096 469.952 83.16C470.656 83.16 471.2 83.224 471.584 83.352C472.032 83.48 472.288 84.088 472.352 85.176C472.352 85.688 472.192 86.168 471.872 86.616C471.616 87.064 471.2 87.288 470.624 87.288C468.576 87.16 466.784 87.064 465.248 87C463.712 87 461.984 87 460.064 87C456.288 87 452.32 87.096 448.16 87.288C447.52 87.288 447.072 87.064 446.816 86.616C446.56 86.168 446.432 85.688 446.432 85.176C446.496 84.088 446.752 83.48 447.2 83.352C447.648 83.224 448.192 83.16 448.832 83.16C451.968 83.16 453.664 82.584 453.92 81.432C454.24 80.28 453.952 78.392 453.056 75.768L449.792 67.8H426.08C425.12 70.232 424.416 71.992 423.968 73.08C423.584 74.168 423.328 74.872 423.2 75.192C423.136 75.512 423.072 75.704 423.008 75.768C422.304 77.944 421.92 79.576 421.856 80.664C421.856 81.688 422.368 82.36 423.392 82.68C424.48 83 426.272 83.16 428.768 83.16C429.472 83.16 430.016 83.224 430.4 83.352C430.848 83.48 431.104 84.088 431.168 85.176C431.168 85.688 431.008 86.168 430.688 86.616C430.432 87.064 430.016 87.288 429.44 87.288C427.392 87.16 425.6 87.064 424.064 87C422.592 87 420.896 87 418.976 87C417.696 87 416.608 87 415.712 87C414.88 87.064 414.016 87.096 413.12 87.096C412.224 87.16 411.072 87.224 409.664 87.288ZM427.904 63.672H448.064L438.368 39H438.08L427.904 63.672ZM476.798 87.288C476.222 87.288 475.774 87.064 475.454 86.616C475.198 86.168 475.07 85.688 475.07 85.176C475.198 84.088 475.486 83.48 475.934 83.352C476.382 83.224 476.926 83.16 477.566 83.16C478.654 83.16 479.55 83.032 480.254 82.776C480.958 82.52 481.63 81.976 482.27 81.144C482.974 80.312 483.774 79.064 484.67 77.4L506.174 37.56C507.326 35.128 507.934 33.432 507.998 32.472C508.062 31.448 507.614 30.84 506.654 30.648C505.694 30.392 504.286 30.264 502.43 30.264H491.966C489.79 30.328 488.094 30.712 486.878 31.416C485.726 32.056 484.798 33.176 484.094 34.776C483.39 36.376 482.59 38.584 481.694 41.4C481.502 42.04 481.086 42.456 480.446 42.648C479.87 42.776 479.23 42.808 478.526 42.744C478.014 42.616 477.534 42.392 477.086 42.072C476.638 41.688 476.446 41.176 476.51 40.536L478.43 28.44C478.622 27.544 478.91 27 479.294 26.808C479.742 26.552 480.382 26.424 481.214 26.424H514.142C517.918 26.424 521.854 26.328 525.95 26.136C526.59 26.136 527.038 26.36 527.294 26.808C527.55 27.256 527.678 27.736 527.678 28.248C527.614 29.336 527.358 29.944 526.91 30.072C526.526 30.136 525.982 30.2 525.278 30.264C522.91 30.392 521.118 31.224 519.902 32.76C518.686 34.296 517.63 35.896 516.734 37.56L495.71 77.4C495.39 78.168 495.134 79 494.942 79.896C494.814 80.792 495.07 81.56 495.71 82.2C496.414 82.776 497.854 83.096 500.03 83.16H511.358C513.598 83.096 515.294 82.744 516.446 82.104C517.662 81.4 518.622 80.248 519.326 78.648C520.094 77.048 520.894 74.84 521.726 72.024C521.918 71.384 522.302 70.968 522.878 70.776C523.518 70.584 524.19 70.552 524.894 70.68C525.406 70.744 525.886 70.968 526.334 71.352C526.782 71.736 526.974 72.248 526.91 72.888L524.99 84.984C524.798 85.88 524.478 86.456 524.03 86.712C523.646 86.904 523.038 87 522.206 87H488.318C486.398 87 484.51 87 482.654 87C480.798 87.064 478.846 87.16 476.798 87.288Z" fill="white"/>
<path d="M86.2775 92.388C86.2775 93.523 85.3575 94.444 84.2225 94.444H63.6665V90.332H84.2225C85.3575 90.332 86.2775 91.253 86.2775 92.388Z" fill="white"/>
<path d="M63.6674 88.277V94.444C61.3964 94.444 59.5564 92.603 59.5564 90.332V88.277H63.6674Z" fill="white"/>
<path d="M59.5564 73.888C61.8264 73.888 63.6674 75.729 63.6674 77.999V80.055H59.5564V73.888Z" fill="white"/>
<path d="M59.5564 73.888V77.999H47.2227C47.2227 75.729 49.0632 73.888 51.3337 73.888H59.5564Z" fill="white"/>
<path d="M51.3337 90.3323V77.999H47.2226V90.3323H51.3337Z" fill="white"/>
<path d="M51.3337 90.332C51.3337 92.603 49.4931 94.444 47.2227 94.444H18.4451C16.1746 94.444 14.334 92.603 14.334 90.332H51.3337Z" fill="white"/>
<path d="M18.4451 90.3324V69.777H14.334V90.3324H18.4451Z" fill="white"/>
<path d="M16.3895 32.7773C17.5248 32.7773 18.4451 33.6976 18.4451 34.8328V61.5549H14.334V34.8328C14.334 33.6976 15.2543 32.7773 16.3895 32.7773Z" fill="white"/>
<path d="M6.79688 18.0459C6.79688 16.9107 7.71718 15.9904 8.85238 15.9904H29.4078V20.1014H8.85238C7.71718 20.1014 6.79688 19.1811 6.79688 18.0459Z" fill="white"/>
<path d="M29.408 22.157V15.9904C31.6785 15.9904 33.519 17.8309 33.519 20.1014V22.157H29.408Z" fill="white"/>
<path d="M33.519 36.5458C31.2486 36.5458 29.408 34.7052 29.408 32.4348V30.3792H33.519V36.5458Z" fill="white"/>
<path d="M33.519 36.5458V32.4347H45.8523C45.8523 34.7052 44.0117 36.5458 41.7412 36.5458H33.519Z" fill="white"/>
<path d="M41.7412 20.1015V32.4348H45.8523V20.1015H41.7412Z" fill="white"/>
<path d="M41.7412 20.1015C41.7412 17.831 43.5818 15.9904 45.8523 15.9904H74.6304C76.9004 15.9904 78.7414 17.831 78.7414 20.1015H41.7412Z" fill="white"/>
<path d="M74.6294 20.1015V40.6569H78.7405V20.1015H74.6294Z" fill="white"/>
<path d="M76.6854 77.657C75.5504 77.657 74.6294 76.736 74.6294 75.601V48.8791H78.7414V75.601C78.7414 76.736 77.8204 77.657 76.6854 77.657Z" fill="white"/>
<path d="M53.3892 85.879V81.768H86.2774C86.2774 84.038 84.4374 85.879 82.1664 85.879H53.3892Z" fill="white"/>
<path d="M82.1665 61.2126V81.768H86.2776V61.2126H82.1665Z" fill="white"/>
<path d="M65.7224 46.8235C65.7224 44.5531 67.5634 42.7125 69.8334 42.7125H82.1664V46.8235H65.7224Z" fill="white"/>
<path d="M65.7224 57.1013V46.8235H69.8334V57.1013H65.7224Z" fill="white"/>
<path d="M69.8334 61.2124C67.5634 61.2124 65.7224 59.3718 65.7224 57.1013H71.8894V61.2124H69.8334Z" fill="white"/>
<path d="M82.1665 46.8235V18.0459C82.1665 16.9107 83.0875 15.9904 84.2225 15.9904C85.3575 15.9904 86.2775 16.9107 86.2775 18.0459V42.7125C86.2775 44.983 84.4375 46.8235 82.1665 46.8235Z" fill="white"/>
<path d="M24.6115 85.879C23.4762 85.879 22.5559 84.959 22.5559 83.823C22.5559 82.688 23.4762 81.768 24.6115 81.768H45.1669V85.879H24.6115Z" fill="white"/>
<path d="M82.1663 57.1013C84.4373 57.1013 86.2773 58.9419 86.2773 61.2124H80.1113V57.1013H82.1663Z" fill="white"/>
<path d="M39.343 24.2127V28.3238H6.45435C6.45435 26.0533 8.29495 24.2127 10.5654 24.2127H39.343Z" fill="white"/>
<path d="M10.5654 48.8792L10.5654 28.3238H6.45434L6.45434 48.8792H10.5654Z" fill="white"/>
<path d="M27.0098 63.2679C27.0098 65.5384 25.1692 67.379 22.8987 67.379H10.5654V63.2679H27.0098Z" fill="white"/>
<path d="M27.0098 52.9903V63.268H22.8987V52.9903H27.0098Z" fill="white"/>
<path d="M22.8986 48.8792C25.1691 48.8792 27.0097 50.7197 27.0097 52.9902H20.843V48.8792H22.8986Z" fill="white"/>
<path d="M10.5654 63.2679V92.046C10.5654 93.181 9.64514 94.101 8.50994 94.101C7.37464 94.101 6.45435 93.181 6.45435 92.046V67.379C6.45435 65.1085 8.29495 63.2679 10.5654 63.2679Z" fill="white"/>
<path d="M68.1203 24.2126C69.2563 24.2126 70.1763 25.1329 70.1763 26.2682C70.1763 27.4034 69.2563 28.3237 68.1203 28.3237H47.5652V24.2126H68.1203Z" fill="white"/>
<path d="M10.5654 52.9903C8.29495 52.9903 6.45435 51.1497 6.45435 48.8792H12.621V52.9903H10.5654Z" fill="white"/>
<path d="M91.3884 91.583C91.3884 96.553 87.3594 100.583 82.3884 100.583H1V19.1942C1 14.2237 5.0296 10.1944 10 10.1942H91.3884V91.583Z" stroke="white" stroke-width="2"/>
<path d="M36.3284 67.12C36.0618 67.12 35.8751 67.027 35.7684 66.84C35.6618 66.6533 35.6084 66.4533 35.6084 66.24C35.6351 65.7867 35.7418 65.5333 35.9284 65.48C36.1151 65.4267 36.3418 65.4 36.6084 65.4C37.4618 65.4 38.0618 65.2533 38.4084 64.96C38.7551 64.64 38.9684 64.2533 39.0484 63.8C39.1551 63.32 39.2084 62.8267 39.2084 62.32V46.48C39.2084 45.9733 39.1551 45.48 39.0484 45C38.9684 44.52 38.7551 44.1333 38.4084 43.84C38.0618 43.52 37.4618 43.36 36.6084 43.36C36.3418 43.36 36.1151 43.3333 35.9284 43.28C35.7418 43.2267 35.6351 42.9733 35.6084 42.52C35.6084 42.3067 35.6618 42.1067 35.7684 41.92C35.8751 41.7333 36.0618 41.64 36.3284 41.64C37.1818 41.6667 37.9818 41.6933 38.7284 41.72C39.5018 41.7467 40.2884 41.76 41.0884 41.76H47.9684C50.1284 41.7867 51.8751 42.12 53.2084 42.76C54.5684 43.4 55.5551 44.2133 56.1684 45.2C56.7818 46.1867 57.0884 47.2133 57.0884 48.28C57.0884 49.6933 56.5151 51.0267 55.3684 52.28C54.2484 53.5333 52.6618 54.4267 50.6084 54.96C51.6218 56.56 52.6484 58.1733 53.6884 59.8C54.7284 61.4 55.9284 62.9067 57.2884 64.32C57.6618 64.6133 58.0214 64.8533 58.3684 65.04C58.7414 65.2267 59.1814 65.3467 59.6884 65.4C59.9014 65.4267 60.1154 65.4667 60.3284 65.52C60.5414 65.5467 60.6614 65.7867 60.6884 66.24C60.6884 66.4533 60.6354 66.6533 60.5284 66.84C60.4214 67.027 60.2354 67.12 59.9684 67.12C59.4084 67.093 58.9554 67.067 58.6084 67.04C58.2884 67.04 57.9684 67.027 57.6484 67C57.3284 67 56.9018 67 56.3684 67C55.2751 66.7867 54.3418 66.4 53.5684 65.84C52.8218 65.28 52.0884 64.5067 51.3684 63.52C50.6218 62.5067 49.9284 61.48 49.2884 60.44C48.6484 59.4 48.0218 58.3867 47.4084 57.4C47.0618 56.84 46.7018 56.44 46.3284 56.2C45.9818 55.9333 45.3151 55.8 44.3284 55.8H43.1684V62.32C43.1951 62.8267 43.2484 63.32 43.3284 63.8C43.4084 64.2533 43.6218 64.64 43.9684 64.96C44.3418 65.2533 44.9418 65.4 45.7684 65.4C46.0351 65.4 46.2618 65.4267 46.4484 65.48C46.6351 65.5333 46.7418 65.7867 46.7684 66.24C46.7684 66.4533 46.7151 66.6533 46.6084 66.84C46.5018 67.027 46.3151 67.12 46.0484 67.12C44.3418 67.04 42.6751 67 41.0484 67C40.2484 67 39.4751 67 38.7284 67C37.9818 67.027 37.1818 67.067 36.3284 67.12ZM43.1684 54.24H46.6884C48.0484 54.24 49.1151 54.0533 49.8884 53.68C50.6884 53.3067 51.2884 52.8267 51.6884 52.24C52.0884 51.6533 52.3418 51.04 52.4484 50.4C52.5818 49.76 52.6484 49.1733 52.6484 48.64C52.6484 47.76 52.4484 46.9067 52.0484 46.08C51.6751 45.2533 50.9951 44.5733 50.0084 44.04C49.0484 43.5067 47.7018 43.24 45.9684 43.24C44.8218 43.24 44.0618 43.4667 43.6884 43.92C43.3418 44.3467 43.1684 45.2267 43.1684 46.56V54.24Z" fill="white"/>
</svg>
