<svg width="24" height="24" viewBox="0 0 24 24" fill="none" xmlns="http://www.w3.org/2000/svg">
<path d="M11.9999 3.75C11.594 3.75 11.2228 4.095 11.2499 4.5L11.6249 14.625C11.6249 14.7245 11.6644 14.8198 11.7348 14.8902C11.8051 14.9605 11.9005 15 11.9999 15C12.0994 15 12.1948 14.9605 12.2651 14.8902C12.3354 14.8198 12.3749 14.7245 12.3749 14.625L12.7499 4.5C12.7771 4.095 12.4059 3.75 11.9999 3.75Z" stroke="black" stroke-linecap="round" stroke-linejoin="round"/>
<path d="M12 20.25C12.4142 20.25 12.75 19.9142 12.75 19.5C12.75 19.0858 12.4142 18.75 12 18.75C11.5858 18.75 11.25 19.0858 11.25 19.5C11.25 19.9142 11.5858 20.25 12 20.25Z" stroke="black" stroke-linecap="round" stroke-linejoin="round"/>
</svg>
