<svg width="24" height="24" viewBox="0 0 24 24" fill="none" xmlns="http://www.w3.org/2000/svg">
<path fill-rule="evenodd" clip-rule="evenodd" d="M16.4444 12.9H12V17.4H16.4444V12.9ZM15.5556 3V4.8H8.44444V3H6.66667V4.8H5.77778C5.54477 4.80012 5.31407 4.84681 5.09893 4.93743C4.88379 5.02804 4.68845 5.16078 4.5241 5.32802C4.35975 5.49526 4.22963 5.69371 4.14122 5.91199C4.05281 6.13028 4.00783 6.36408 4.00889 6.6L4 19.2C4 19.6774 4.1873 20.1352 4.5207 20.4728C4.8541 20.8104 5.30628 21 5.77778 21H18.2222C18.6933 20.9986 19.1447 20.8085 19.4777 20.4712C19.8108 20.134 19.9986 19.677 20 19.2V6.6C19.9986 6.12305 19.8108 5.66604 19.4777 5.32879C19.1447 4.99153 18.6933 4.80142 18.2222 4.8H17.3333V3H15.5556ZM18.2222 19.2H5.77778V9.3H18.2222V19.2Z" fill="#D8D8D8"/>
</svg>
