<svg width="24" height="24" viewBox="0 0 24 24" fill="none" xmlns="http://www.w3.org/2000/svg">
<path fill-rule="evenodd" clip-rule="evenodd" d="M11.8 6C9.90038 6.00113 8.0451 6.57404 6.47559 7.64417C4.90607 8.71429 3.69499 10.2321 3 12C3.69499 13.7679 4.90607 15.2857 6.47559 16.3558C8.0451 17.426 9.90038 17.9989 11.8 18C13.6996 17.9989 15.5549 17.426 17.1244 16.3558C18.6939 15.2857 19.905 13.7679 20.6 12C19.905 10.2321 18.6939 8.71429 17.1244 7.64417C15.5549 6.57404 13.6996 6.00113 11.8 6ZM11.8 16C10.7391 16 9.72173 15.5786 8.97158 14.8284C8.22144 14.0783 7.8 13.0609 7.8 12C7.8 10.9391 8.22144 9.92172 8.97158 9.17157C9.72173 8.42142 10.7391 8 11.8 8C12.8609 8 13.8783 8.42142 14.6284 9.17157C15.3786 9.92172 15.8 10.9391 15.8 12C15.8 13.0609 15.3786 14.0783 14.6284 14.8284C13.8783 15.5786 12.8609 16 11.8 16ZM11.8 9.6C11.1635 9.6 10.553 9.85285 10.1029 10.3029C9.65284 10.753 9.4 11.3635 9.4 12C9.4 12.6365 9.65284 13.247 10.1029 13.6971C10.553 14.1471 11.1635 14.4 11.8 14.4C12.4365 14.4 13.047 14.1471 13.4971 13.6971C13.9472 13.247 14.2 12.6365 14.2 12C14.2 11.3635 13.9472 10.753 13.4971 10.3029C13.047 9.85285 12.4365 9.6 11.8 9.6Z" fill="#D8D8D8"/>
</svg>
