<svg width="24" height="24" viewBox="0 0 24 24" fill="none" xmlns="http://www.w3.org/2000/svg">
<path d="M4.5 10.9219H10.1719C10.5861 10.9219 10.9219 10.5861 10.9219 10.1719V4.5C10.9219 2.84583 9.57605 1.5 7.92187 1.5H4.5C2.84583 1.5 1.5 2.84583 1.5 4.5V7.92188C1.5 9.57605 2.84583 10.9219 4.5 10.9219Z" fill="#D8D8D8"/>
<path d="M19.5 1.5H16.0781C14.424 1.5 13.0781 2.84583 13.0781 4.5V10.1719C13.0781 10.5861 13.4139 10.9219 13.8281 10.9219H19.5C21.1542 10.9219 22.5 9.57605 22.5 7.92188V4.5C22.5 2.84583 21.1542 1.5 19.5 1.5Z" fill="#D8D8D8"/>
<path d="M4.5 22.5H7.92187C9.57605 22.5 10.9219 21.1542 10.9219 19.5V13.8281C10.9219 13.4139 10.5861 13.0781 10.1719 13.0781H4.5C2.84583 13.0781 1.5 14.424 1.5 16.0781V19.5C1.5 21.1542 2.84583 22.5 4.5 22.5Z" fill="#D8D8D8"/>
<path d="M19.5 13.0781H13.8281C13.4139 13.0781 13.0781 13.4139 13.0781 13.8281V19.5C13.0781 21.1542 14.424 22.5 16.0781 22.5H19.5C21.1542 22.5 22.5 21.1542 22.5 19.5V16.0781C22.5 14.424 21.1542 13.0781 19.5 13.0781Z" fill="#D8D8D8"/>
</svg>
