<svg width="24" height="24" viewBox="0 0 24 24" fill="none" xmlns="http://www.w3.org/2000/svg">
<path d="M7.81706 13.328C6.27142 13.3299 4.78961 13.9447 3.69667 15.0376C2.60374 16.1306 1.98891 17.6124 1.98706 19.158L1.98706 20.938C1.98706 21.0706 2.03974 21.1978 2.13351 21.2916C2.22728 21.3853 2.35445 21.438 2.48706 21.438H18.4871C18.6197 21.438 18.7468 21.3853 18.8406 21.2916C18.9344 21.1978 18.9871 21.0706 18.9871 20.938V19.158C18.9855 17.6123 18.3707 16.1303 17.2777 15.0373C16.1847 13.9443 14.7028 13.3296 13.1571 13.328H7.81706Z" fill="white"/>
<path d="M10.4871 11.438C9.59705 11.438 8.72702 11.1741 7.987 10.6796C7.24698 10.1852 6.6702 9.48235 6.3296 8.66008C5.98901 7.83781 5.8999 6.93301 6.07353 6.0601C6.24716 5.18718 6.67575 4.38536 7.30508 3.75603C7.93442 3.12669 8.73624 2.69811 9.60916 2.52447C10.4821 2.35084 11.3869 2.43995 12.2091 2.78055C13.0314 3.12114 13.7342 3.69792 14.2287 4.43794C14.7231 5.17796 14.9871 6.04799 14.9871 6.93801C14.9871 8.13148 14.513 9.27607 13.669 10.12C12.8251 10.9639 11.6805 11.438 10.4871 11.438Z" fill="white"/>
<path d="M19.5 10V8.5C19.5 8.23478 19.3946 7.98043 19.2071 7.79289C19.0196 7.60536 18.7652 7.5 18.5 7.5C18.2348 7.5 17.9804 7.60536 17.7929 7.79289C17.6054 7.98043 17.5 8.23478 17.5 8.5V10H16C15.7348 10 15.4804 10.1054 15.2929 10.2929C15.1054 10.4804 15 10.7348 15 11C15 11.2652 15.1054 11.5196 15.2929 11.7071C15.4804 11.8946 15.7348 12 16 12H17.5V13.5C17.5 13.7652 17.6054 14.0196 17.7929 14.2071C17.9804 14.3946 18.2348 14.5 18.5 14.5C18.7652 14.5 19.0196 14.3946 19.2071 14.2071C19.3946 14.0196 19.5 13.7652 19.5 13.5V12H21C21.2652 12 21.5196 11.8946 21.7071 11.7071C21.8946 11.5196 22 11.2652 22 11C22 10.7348 21.8946 10.4804 21.7071 10.2929C21.5196 10.1054 21.2652 10 21 10H19.5Z" fill="white"/>
</svg>
