<svg width="24" height="24" viewBox="0 0 24 24" fill="none" xmlns="http://www.w3.org/2000/svg">
<path d="M15.75 15.75H19.5V19.5H15.75V15.75ZM12.75 12.75H15.75V15.75H12.75V12.75ZM19.5 19.5H22.5V22.5H19.5V19.5ZM20.25 12.75H22.5V15H20.25V12.75ZM12.75 20.25H15V22.5H12.75V20.25ZM15.75 4.5H19.5V8.25H15.75V4.5Z" fill="black"/>
<path d="M22.5 11.25H12.75V1.5H22.5V11.25ZM14.8125 9.1875H20.4375V3.5625H14.8125V9.1875ZM4.5 4.5H8.25V8.25H4.5V4.5Z" fill="black"/>
<path d="M11.25 11.25H1.5V1.5H11.25V11.25ZM3.5625 9.1875H9.1875V3.5625H3.5625V9.1875ZM4.5 15.75H8.25V19.5H4.5V15.75Z" fill="black"/>
<path d="M11.25 22.5H1.5V12.75H11.25V22.5ZM3.5625 20.4375H9.1875V14.8125H3.5625V20.4375Z" fill="black"/>
</svg>
