<svg width="24" height="24" viewBox="0 0 24 24" fill="none" xmlns="http://www.w3.org/2000/svg">
<path d="M3.98798 17.6741L6.62701 15.2C5.27679 14.3049 4.05631 13.2282 3 12V11.9929C3.78852 11.0722 4.67131 10.2367 5.63397 9.5C7.43393 8.00718 9.66522 7.13095 12 7C12.9645 7.00821 13.9204 7.18199 14.826 7.51392L18.052 4.48901L19.177 5.54395L5.11298 18.729L3.98798 17.6741ZM9.13599 11.999C9.13647 12.2546 9.17012 12.5092 9.23602 12.7561L12.971 9.2561C12.6602 9.14258 12.3318 9.08455 12.001 9.08496C11.2348 9.09262 10.503 9.40375 9.96594 9.9502C9.42887 10.4966 9.13039 11.2329 9.13599 11.999ZM9.17297 16.4851L11.031 14.7439C11.3413 14.858 11.6694 14.9163 12 14.916C12.7662 14.9078 13.4978 14.5961 14.0345 14.0493C14.5712 13.5025 14.8691 12.7652 14.863 11.999C14.8619 11.7438 14.8284 11.4896 14.763 11.2429L17.369 8.79907C18.7211 9.69357 19.943 10.7707 21 12V12.0071C20.2114 12.9278 19.3287 13.7632 18.366 14.5C16.5659 15.9926 14.3347 16.8688 12 17C11.0351 16.9916 10.0788 16.8175 9.17297 16.4851Z" fill="#A5A5A5"/>
</svg>
