<svg width="24" height="24" viewBox="0 0 24 24" fill="none" xmlns="http://www.w3.org/2000/svg">
<path d="M20.1616 16.3078C19.8522 16.0219 19.3976 15.9516 19.0085 15.8859C18.4694 15.7969 18.2632 15.6984 17.9491 15.4172C17.2788 14.8219 17.2788 13.9594 17.9491 13.3641L19.3694 12.1031C21.5444 10.1813 21.5444 7.03125 19.3694 5.10938C17.7663 3.69844 15.6147 3 13.3788 3C10.7679 3 8.03975 3.95156 5.93506 5.81719C2.021 9.27656 2.021 14.9438 5.93506 18.4031C7.88037 20.1234 10.5054 20.9812 13.1022 21H13.1819C15.7788 21 18.3382 20.1609 20.1569 18.5438C20.8319 17.9484 20.719 16.8281 20.1616 16.3078Z" stroke="#7E7E7E" stroke-width="2" stroke-miterlimit="10"/>
<path d="M6.75 11.25C7.57843 11.25 8.25 10.5784 8.25 9.75C8.25 8.92157 7.57843 8.25 6.75 8.25C5.92157 8.25 5.25 8.92157 5.25 9.75C5.25 10.5784 5.92157 11.25 6.75 11.25Z" fill="#7E7E7E"/>
<path d="M7.125 16.0781C7.95343 16.0781 8.625 15.4066 8.625 14.5781C8.625 13.7497 7.95343 13.0781 7.125 13.0781C6.29657 13.0781 5.625 13.7497 5.625 14.5781C5.625 15.4066 6.29657 16.0781 7.125 16.0781Z" fill="#7E7E7E"/>
<path d="M10.5 8.25C11.3284 8.25 12 7.57843 12 6.75C12 5.92157 11.3284 5.25 10.5 5.25C9.67157 5.25 9 5.92157 9 6.75C9 7.57843 9.67157 8.25 10.5 8.25Z" fill="#7E7E7E"/>
<path d="M12 19.4531C13.2426 19.4531 14.25 18.4458 14.25 17.2031C14.25 15.9605 13.2426 14.9531 12 14.9531C10.7574 14.9531 9.75 15.9605 9.75 17.2031C9.75 18.4458 10.7574 19.4531 12 19.4531Z" fill="#7E7E7E"/>
<path d="M15.375 8.25C16.2034 8.25 16.875 7.57843 16.875 6.75C16.875 5.92157 16.2034 5.25 15.375 5.25C14.5466 5.25 13.875 5.92157 13.875 6.75C13.875 7.57843 14.5466 8.25 15.375 8.25Z" fill="#7E7E7E"/>
</svg>
