<svg width="177" height="177" viewBox="0 0 177 177" fill="none" xmlns="http://www.w3.org/2000/svg">
<path d="M128.471 125.388C128.471 126.523 127.551 127.444 126.416 127.444L105.86 127.444L105.86 123.333L126.416 123.333C127.551 123.333 128.471 124.253 128.471 125.388Z" fill="#037BAF"/>
<path d="M105.861 121.277V127.444C103.59 127.444 101.75 125.603 101.75 123.332V121.277H105.861Z" fill="#037BAF"/>
<path d="M101.75 106.888C104.02 106.888 105.861 108.729 105.861 110.999V113.055H101.75V106.888Z" fill="#037BAF"/>
<path d="M101.75 106.888V110.999H89.4163C89.4163 108.729 91.2568 106.888 93.5273 106.888H101.75Z" fill="#037BAF"/>
<rect x="93.5273" y="110.999" width="12.3333" height="4.11109" transform="rotate(90 93.5273 110.999)" fill="#037BAF"/>
<path d="M93.5273 123.332C93.5273 125.603 91.6867 127.444 89.4163 127.444H60.6387C58.3682 127.444 56.5276 125.603 56.5276 123.332H93.5273Z" fill="#037BAF"/>
<rect x="60.6387" y="102.777" width="20.5554" height="4.11109" transform="rotate(90 60.6387 102.777)" fill="#037BAF"/>
<path d="M58.5831 65.7773C59.7184 65.7773 60.6387 66.6976 60.6387 67.8328V94.5549H56.5276V67.8328C56.5276 66.6976 57.4479 65.7773 58.5831 65.7773Z" fill="#037BAF"/>
<path d="M48.9905 51.046C48.9905 49.9107 49.9108 48.9904 51.046 48.9904L71.6014 48.9904L71.6014 53.1015L51.046 53.1015C49.9108 53.1015 48.9905 52.1812 48.9905 51.046Z" fill="#037BAF"/>
<path d="M71.6016 55.157V48.9904C73.8721 48.9904 75.7126 50.831 75.7126 53.1015V55.157H71.6016Z" fill="#037BAF"/>
<path d="M75.7126 69.5459C73.4422 69.5459 71.6016 67.7053 71.6016 65.4348V63.3793H75.7126V69.5459Z" fill="#037BAF"/>
<path d="M75.7126 69.5458V65.4348H88.0459C88.0459 67.7052 86.2053 69.5458 83.9348 69.5458H75.7126Z" fill="#037BAF"/>
<rect x="83.9348" y="65.4348" width="12.3333" height="4.11109" transform="rotate(-90 83.9348 65.4348)" fill="#037BAF"/>
<path d="M83.9348 53.1015C83.9348 50.831 85.7754 48.9904 88.0459 48.9904H116.824C119.094 48.9904 120.935 50.831 120.935 53.1015H83.9348Z" fill="#037BAF"/>
<rect x="116.823" y="73.657" width="20.5554" height="4.11109" transform="rotate(-90 116.823 73.657)" fill="#037BAF"/>
<path d="M118.879 110.657C117.744 110.657 116.823 109.736 116.823 108.601V81.8791H120.935V108.601C120.935 109.736 120.014 110.657 118.879 110.657Z" fill="#037BAF"/>
<path d="M95.5828 118.879V114.768H128.471C128.471 117.038 126.631 118.879 124.36 118.879H95.5828Z" fill="#037BAF"/>
<rect x="124.36" y="114.768" width="20.5554" height="4.11109" transform="rotate(-90 124.36 114.768)" fill="#037BAF"/>
<path d="M107.916 79.8235C107.916 77.5531 109.757 75.7125 112.027 75.7125H124.36V79.8235H107.916Z" fill="#037BAF"/>
<path d="M107.916 90.1013V79.8236H112.027V90.1013H107.916Z" fill="#037BAF"/>
<path d="M112.027 94.2124C109.757 94.2124 107.916 92.3718 107.916 90.1013H114.083V94.2124H112.027Z" fill="#037BAF"/>
<path d="M124.36 79.8235V51.0459C124.36 49.9107 125.281 48.9904 126.416 48.9904C127.551 48.9904 128.471 49.9107 128.471 51.0459V75.7125C128.471 77.983 126.631 79.8235 124.36 79.8235Z" fill="#037BAF"/>
<path d="M66.8051 118.879C65.6698 118.879 64.7495 117.959 64.7495 116.823C64.7495 115.688 65.6698 114.768 66.8051 114.768H87.3605V118.879H66.8051Z" fill="#037BAF"/>
<path d="M124.36 90.1013C126.631 90.1013 128.471 91.9419 128.471 94.2124H122.305V90.1013H124.36Z" fill="#037BAF"/>
<path d="M81.5366 57.2126V61.3237H48.6479C48.6479 59.0532 50.4885 57.2126 52.759 57.2126H81.5366Z" fill="#037BAF"/>
<rect x="52.759" y="61.3237" width="20.5554" height="4.11109" transform="rotate(90 52.759 61.3237)" fill="#037BAF"/>
<path d="M69.2034 96.2679C69.2034 98.5384 67.3628 100.379 65.0923 100.379H52.759V96.2679H69.2034Z" fill="#037BAF"/>
<path d="M69.2034 85.9902V96.2679H65.0923V85.9902H69.2034Z" fill="#037BAF"/>
<path d="M65.0923 81.8792C67.3628 81.8792 69.2034 83.7197 69.2034 85.9902H63.0367V81.8792H65.0923Z" fill="#037BAF"/>
<path d="M52.759 96.2679V125.046C52.759 126.181 51.8387 127.101 50.7035 127.101C49.5682 127.101 48.6479 126.181 48.6479 125.046V100.379C48.6479 98.1085 50.4885 96.2679 52.759 96.2679Z" fill="#037BAF"/>
<path d="M110.314 57.2126C111.45 57.2126 112.37 58.1329 112.37 59.2681C112.37 60.4034 111.45 61.3237 110.314 61.3237H89.7589V57.2126H110.314Z" fill="#037BAF"/>
<path d="M52.759 85.9902C50.4885 85.9902 48.6479 84.1496 48.6479 81.8791H54.8146V85.9902H52.759Z" fill="#037BAF"/>
<path d="M133.582 124.583C133.582 129.553 129.553 133.583 124.582 133.583H43.1936V52.1942C43.1936 47.2237 47.2232 43.1943 52.1936 43.1942H133.582V124.583Z" stroke="#037BAF" stroke-width="2"/>
<path d="M78.522 100.12C78.2554 100.12 78.0687 100.027 77.962 99.84C77.8554 99.6533 77.802 99.4533 77.802 99.24C77.8287 98.7867 77.9354 98.5333 78.122 98.48C78.3087 98.4267 78.5354 98.4 78.802 98.4C79.6554 98.4 80.2554 98.2533 80.602 97.96C80.9487 97.64 81.162 97.2533 81.242 96.8C81.3487 96.32 81.402 95.8267 81.402 95.32V79.48C81.402 78.9733 81.3487 78.48 81.242 78C81.162 77.52 80.9487 77.1333 80.602 76.84C80.2554 76.52 79.6554 76.36 78.802 76.36C78.5354 76.36 78.3087 76.3333 78.122 76.28C77.9354 76.2267 77.8287 75.9733 77.802 75.52C77.802 75.3067 77.8554 75.1067 77.962 74.92C78.0687 74.7333 78.2554 74.64 78.522 74.64C79.3754 74.6667 80.1754 74.6933 80.922 74.72C81.6954 74.7467 82.482 74.76 83.282 74.76H90.162C92.322 74.7867 94.0687 75.12 95.402 75.76C96.762 76.4 97.7487 77.2133 98.362 78.2C98.9754 79.1867 99.282 80.2133 99.282 81.28C99.282 82.6933 98.7087 84.0267 97.562 85.28C96.442 86.5333 94.8554 87.4267 92.802 87.96C93.8154 89.56 94.842 91.1733 95.882 92.8C96.922 94.4 98.122 95.9067 99.482 97.32C99.8554 97.6133 100.215 97.8533 100.562 98.04C100.935 98.2267 101.375 98.3467 101.882 98.4C102.095 98.4267 102.309 98.4667 102.522 98.52C102.735 98.5467 102.855 98.7867 102.882 99.24C102.882 99.4533 102.829 99.6533 102.722 99.84C102.615 100.027 102.429 100.12 102.162 100.12C101.602 100.093 101.149 100.067 100.802 100.04C100.482 100.04 100.162 100.027 99.842 100C99.522 100 99.0954 100 98.562 100C97.4687 99.7867 96.5354 99.4 95.762 98.84C95.0154 98.28 94.282 97.5067 93.562 96.52C92.8154 95.5067 92.122 94.48 91.482 93.44C90.842 92.4 90.2154 91.3867 89.602 90.4C89.2554 89.84 88.8954 89.44 88.522 89.2C88.1754 88.9333 87.5087 88.8 86.522 88.8H85.362V95.32C85.3887 95.8267 85.442 96.32 85.522 96.8C85.602 97.2533 85.8154 97.64 86.162 97.96C86.5354 98.2533 87.1354 98.4 87.962 98.4C88.2287 98.4 88.4554 98.4267 88.642 98.48C88.8287 98.5333 88.9354 98.7867 88.962 99.24C88.962 99.4533 88.9087 99.6533 88.802 99.84C88.6954 100.027 88.5087 100.12 88.242 100.12C86.5354 100.04 84.8687 100 83.242 100C82.442 100 81.6687 100 80.922 100C80.1754 100.027 79.3754 100.067 78.522 100.12ZM85.362 87.24H88.882C90.242 87.24 91.3087 87.0533 92.082 86.68C92.882 86.3067 93.482 85.8267 93.882 85.24C94.282 84.6533 94.5354 84.04 94.642 83.4C94.7754 82.76 94.842 82.1733 94.842 81.64C94.842 80.76 94.642 79.9067 94.242 79.08C93.8687 78.2533 93.1887 77.5733 92.202 77.04C91.242 76.5067 89.8954 76.24 88.162 76.24C87.0154 76.24 86.2554 76.4667 85.882 76.92C85.5354 77.3467 85.362 78.2267 85.362 79.56V87.24Z" fill="#037BAF"/>
</svg>
