<svg width="512" height="512" viewBox="0 0 512 512" fill="none" xmlns="http://www.w3.org/2000/svg">
<path d="M292.6 407.78L172.6 87.78C171.028 83.5862 168.213 79.9722 164.532 77.4209C160.851 74.8697 156.479 73.5027 152 73.5027C147.521 73.5027 143.149 74.8697 139.468 77.4209C135.787 79.9722 132.972 83.5862 131.4 87.78L11.4002 407.78C9.41548 413.229 9.6627 419.242 12.0881 424.51C14.5135 429.778 18.9208 433.875 24.3515 435.91C29.7821 437.945 35.7966 437.754 41.0868 435.377C46.377 433.001 50.5148 428.632 52.6002 423.22L88.7602 326.8C88.9026 326.419 89.158 326.09 89.4921 325.858C89.8262 325.626 90.2233 325.501 90.6302 325.5H213.37C213.777 325.501 214.174 325.626 214.508 325.858C214.842 326.09 215.098 326.419 215.24 326.8L251.4 423.22C253.486 428.632 257.623 433.001 262.914 435.377C268.204 437.754 274.218 437.945 279.649 435.91C285.08 433.875 289.487 429.778 291.912 424.51C294.338 419.242 294.585 413.229 292.6 407.78ZM106.76 278.78L150.13 163.13C150.274 162.751 150.53 162.424 150.864 162.193C151.198 161.963 151.594 161.839 152 161.839C152.406 161.839 152.802 161.963 153.136 162.193C153.47 162.424 153.726 162.751 153.87 163.13L197.24 278.8C197.353 279.102 197.391 279.427 197.351 279.748C197.311 280.068 197.195 280.373 197.011 280.639C196.827 280.904 196.582 281.121 196.296 281.271C196.011 281.421 195.693 281.499 195.37 281.5H108.63C108.308 281.499 107.99 281.421 107.704 281.271C107.418 281.121 107.173 280.904 106.99 280.639C106.806 280.373 106.689 280.068 106.649 279.748C106.609 279.427 106.647 279.102 106.76 278.8V278.78ZM400.77 169.5C359.05 169.2 321.69 193.37 305.77 230.9C303.489 236.271 303.435 242.327 305.62 247.738C307.805 253.148 312.05 257.469 317.42 259.75C322.791 262.031 328.848 262.085 334.258 259.9C339.668 257.715 343.989 253.471 346.27 248.1C355.15 227.21 376.04 213.66 399.59 213.5C431.91 213.28 458 240 458 272.35C458 272.739 457.849 273.113 457.579 273.393C457.308 273.673 456.939 273.837 456.55 273.85C434.63 274.46 408.63 275.92 385.43 278.65C330.68 285.09 298 314.94 298 358.5C298 381.69 306.76 402.5 322.67 417.18C337.6 430.93 358 438.5 380 438.5C411 438.5 437.69 430.5 457.94 415.28H458C457.988 418.169 458.544 421.032 459.639 423.706C460.733 426.38 462.343 428.812 464.377 430.864C466.411 432.916 468.829 434.547 471.493 435.664C474.158 436.781 477.016 437.363 479.905 437.375C482.794 437.387 485.658 436.831 488.331 435.737C491.005 434.643 493.438 433.033 495.489 430.999C497.541 428.964 499.172 426.546 500.289 423.882C501.406 421.217 501.988 418.359 502 415.47V272.47C502 216.29 457 169.91 400.77 169.5ZM380 394.5C362.47 394.5 342 385.07 342 358.5C342 347.83 345.83 340.36 354.43 334.27C362.8 328.34 375.63 324.11 390.57 322.35C411.69 319.86 435.39 318.49 455.71 317.88C455.981 317.88 456.25 317.935 456.499 318.041C456.749 318.148 456.974 318.304 457.161 318.501C457.348 318.697 457.493 318.93 457.588 319.184C457.682 319.438 457.724 319.709 457.71 319.98C455 370.1 429.46 394.5 380 394.5Z" fill="black"/>
</svg>
