<svg width="512" height="512" viewBox="0 0 512 512" fill="none" xmlns="http://www.w3.org/2000/svg">
<path d="M256 400V464M256 208V272M256 48V80M416 208H102.63C100.528 208 98.4456 207.586 96.5033 206.782C94.5609 205.977 92.7962 204.797 91.31 203.31L32 144L91.31 84.69C92.7962 83.2028 94.5609 82.0232 96.5033 81.2184C98.4456 80.4137 100.528 79.9997 102.63 80H416C420.243 80 424.313 81.6857 427.314 84.6863C430.314 87.6869 432 91.7565 432 96V192C432 196.243 430.314 200.313 427.314 203.314C424.313 206.314 420.243 208 416 208ZM96 400H409.37C411.472 400 413.554 399.586 415.497 398.782C417.439 397.977 419.204 396.797 420.69 395.31L480 336L420.69 276.69C419.204 275.203 417.439 274.023 415.497 273.218C413.554 272.414 411.472 272 409.37 272H96C91.7565 272 87.6869 273.686 84.6863 276.686C81.6857 279.687 80 283.757 80 288V384C80 388.243 81.6857 392.313 84.6863 395.314C87.6869 398.314 91.7565 400 96 400Z" stroke="black" stroke-width="32" stroke-linecap="round" stroke-linejoin="round"/>
</svg>
